<svg width="72" height="72" fill="none" xmlns="http://www.w3.org/2000/svg"><path d="M71 24.333S71 1 36 1 1 24.333 1 24.333s5.148-2.916 8.75-2.916c3.602 0 8.75 2.916 8.75 2.916s5.148-2.916 8.75-2.916c3.602 0 8.75 2.916 8.75 2.916s5.148-2.916 8.75-2.916c3.602 0 8.75 2.916 8.75 2.916s5.148-2.916 8.75-2.916c3.602 0 8.75 2.916 8.75 2.916Z" fill="#FAE719"/><path d="M48.667 45.667V71H23.333V45.667m25.334 0L71 24.333M48.667 45.667h-6.834m-18.5 0L1 24.333m22.333 21.334h6.834M71 24.333S71 1 36 1 1 24.333 1 24.333m70 0s-5.148-2.916-8.75-2.916c-3.602 0-8.75 2.916-8.75 2.916m-52.5 0s5.148-2.916 8.75-2.916c3.602 0 8.75 2.916 8.75 2.916m0 0 11.667 21.334M18.5 24.333s5.148-2.916 8.75-2.916c3.602 0 8.75 2.916 8.75 2.916m0 0v21.334m0-21.334s5.148-2.916 8.75-2.916c3.602 0 8.75 2.916 8.75 2.916m0 0L41.833 45.667m0 0H36m0 0h-5.833" stroke="#18191A" stroke-width="1.5"/></svg>