<svg width="72" height="73" fill="none" xmlns="http://www.w3.org/2000/svg"><path d="M1 19.5V37h20.417V19.5H1ZM9.75 37v35h17.5V37H9.75ZM71 37V19.5H50.583V37H71ZM62.25 72V37h-17.5v35h17.5Z" fill="#FAE719"/><path d="M9.75 37H1V19.5h8.75m0 17.5v35h17.5M9.75 37h11.667m40.833 0H71V19.5h-8.75m0 17.5v35h-17.5m17.5-35H50.583M27.25 72V37m0 35h17.5m-17.5-35h17.5m-17.5 0h-5.833m23.333 0v35m0-35h5.833m-29.166 0V19.5m0 0H36m-14.583 0H9.75M50.583 37V19.5m0 0H36m14.583 0H62.25M36 19.5l20.417-7.656M36 19.5l-20.417-7.656M36 19.5l-4.861-5.833M36 19.5l4.861-5.833M62.25 19.5l-2.917-8.75-2.916 1.094m0 0L50.583 2l-9.722 11.667M9.75 19.5l2.917-8.75 2.916 1.094m0 0L21.417 2l9.722 11.667m0 0S33.786 10.75 36 10.75s4.861 2.917 4.861 2.917" stroke="#18191A" stroke-width="1.5"/></svg>