<svg aria-hidden="true" style="width:0;height:0;position:absolute;overflow:hidden" xmlns="http://www.w3.org/2000/svg"><defs><symbol id="icon-burger" viewBox="0 0 43 32"><path stroke-width="3.556" d="M0 1.778h42.667M0 16h42.667M0 30.222h42.667"/></symbol><symbol id="icon-balance" viewBox="0 0 32 32"><path stroke-width="1.333" d="M8 31.333h16M31.333 20c0 1.075-.523 1.881-1.37 2.445-.866.577-2.063.888-3.297.888s-2.431-.311-3.297-.888c-.846-.564-1.37-1.371-1.37-2.445 0-2.483 1.256-5.354 2.579-7.669a35.511 35.511 0 0 1 2.088-3.224 35.41 35.41 0 0 1 2.088 3.224c1.323 2.316 2.579 5.187 2.579 7.669zM10 20c0 1.075-.523 1.881-1.37 2.445-.866.577-2.062.888-3.297.888s-2.431-.311-3.297-.888C1.19 21.881.666 21.074.666 20c0-2.483 1.256-5.354 2.579-7.669a35.511 35.511 0 0 1 2.088-3.224 35.41 35.41 0 0 1 2.088 3.224C8.744 14.647 10 17.518 10 20zM16 6.667v24M19.333 4h7.333M5.333 4h7.333M19.333 4a3.333 3.333 0 1 1-6.665 0 3.333 3.333 0 0 1 6.665 0z"/></symbol><symbol id="icon-cabinet" viewBox="0 0 32 32"><path stroke-width="1.231" d="M16 19.692c-8.157 0-14.769 4.28-14.769 11.077h29.538c0-6.797-6.612-11.077-14.769-11.077zM23.385 8.615a7.385 7.385 0 1 1-14.77 0 7.385 7.385 0 0 1 14.77 0z"/></symbol><symbol id="icon-cart" viewBox="0 0 32 32"><path stroke-width="1.28" d="M30.08 28.8a2.56 2.56 0 1 1-5.12 0 2.56 2.56 0 0 1 5.12 0zM17.28 28.8a2.56 2.56 0 1 1-5.12 0 2.56 2.56 0 0 1 5.12 0zM30.72 23.68h-19.2L8.887 8.32M0 1.28h7.68l1.207 7.04m0 0H30.72l-3.84 11.52h-16"/></symbol><symbol id="icon-catalog" viewBox="0 0 32 32"><path d="M0 0h6.667v6.667H0V0zM25.333 0H32v6.667h-6.667V0zM0 25.333h6.667V32H0v-6.667zM25.333 25.333H32V32h-6.667v-6.667z"/></symbol><symbol id="icon-facebook" viewBox="0 0 32 32"><path fill="#2a2a2a" style="fill:var(--color1,#2a2a2a)" d="M32 16c0 8.837-7.163 16-16 16S0 24.837 0 16 7.163 0 16 0s16 7.163 16 16z"/><path fill="#fff" style="fill:var(--color2,#fff)" d="m19.725 14.18-.431 2.78h-2.266v6.72h-3.039v-6.72H11.52v-2.78h2.469v-2.119c0-2.41 1.452-3.742 3.674-3.742 1.064 0 2.177.188 2.177.188v2.367h-1.226c-1.208 0-1.585.741-1.585 1.502v1.804h2.697z"/></symbol><symbol id="icon-heart" viewBox="0 0 32 32"><path stroke-width="1.333" d="M28.837 16.379 16 30.99 3.163 16.379c-3.321-3.698-3.328-9.566-.02-13.272C4.82 1.559 6.732.666 8.889.666s4.058.89 5.726 2.748L16 4.956l1.385-1.542c3.284-3.656 8.437-3.664 11.729-.022 1.395 1.872 2.22 4.036 2.22 6.504 0 2.473-.827 4.624-2.496 6.482z"/></symbol><symbol id="icon-instagram" viewBox="0 0 32 32"><path fill="#2a2a2a" style="fill:var(--color1,#2a2a2a)" d="M32 16c0 8.837-7.163 16-16 16S0 24.837 0 16 7.163 0 16 0s16 7.163 16 16z"/><path fill="#fff" style="fill:var(--color2,#fff)" d="M15.999 8.32c-2.086 0-2.348.009-3.167.046-.818.037-1.376.167-1.864.357-.505.196-.934.459-1.36.886s-.69.855-.886 1.36c-.19.488-.32 1.047-.357 1.864-.036.819-.046 1.081-.046 3.167s.009 2.347.046 3.166c.038.818.167 1.376.357 1.864.196.505.459.934.886 1.36s.855.69 1.36.886c.489.19 1.047.319 1.864.357.819.037 1.081.046 3.166.046s2.347-.009 3.166-.046c.818-.037 1.376-.167 1.865-.357.505-.196.933-.459 1.36-.886s.69-.855.886-1.36c.189-.488.318-1.047.357-1.864.037-.819.046-1.08.046-3.166s-.01-2.348-.046-3.167c-.038-.818-.168-1.376-.357-1.864-.197-.505-.459-.934-.886-1.36s-.854-.69-1.36-.886c-.49-.19-1.048-.319-1.866-.357-.819-.037-1.08-.046-3.166-.046h.002zm-.689 1.384h.689c2.051 0 2.294.007 3.103.044.749.034 1.155.159 1.426.264.358.139.614.306.883.574s.435.525.575.883c.105.27.23.677.264 1.426.037.81.045 1.053.045 3.102s-.008 2.293-.045 3.102c-.034.749-.159 1.155-.264 1.426-.139.358-.306.614-.575.882s-.524.435-.883.574c-.27.106-.677.23-1.426.265-.81.037-1.053.045-3.103.045s-2.294-.008-3.103-.045c-.749-.035-1.155-.16-1.426-.265-.358-.139-.614-.306-.883-.574s-.435-.524-.575-.883c-.105-.27-.23-.677-.264-1.426-.037-.81-.044-1.053-.044-3.104s.007-2.293.044-3.102c.034-.749.159-1.155.264-1.426.139-.358.306-.614.575-.883s.525-.435.883-.575c.271-.106.677-.23 1.426-.265.708-.032.983-.042 2.414-.043v.002zm4.789 1.276a.925.925 0 0 0-.851.569.917.917 0 0 0 .2 1.005.916.916 0 0 0 1.004.199.929.929 0 0 0 .569-.852.922.922 0 0 0-.922-.922zm-4.1 1.076a3.944 3.944 0 1 0 0 7.889 3.944 3.944 0 0 0 0-7.889zm0 1.384a2.56 2.56 0 1 1 0 5.12 2.56 2.56 0 0 1 0-5.12z"/></symbol><symbol id="icon-logo" viewBox="0 0 257 32"><path fill="#fae719" style="fill:var(--color1,#fae719)" d="M62.667 0h194.667v32H62.667V0z"/><path fill="#18191a" style="fill:var(--color2,#18191a)" d="M71.471 24V9.067h4.16v8.768l6.165-8.768h3.968V24h-4.16v-8.747L75.46 24h-3.989zM99.168 9.067h4.224V24h-4.224V9.067zM93.408 24h-4.224V9.067h4.224V24zm6.059-5.824H93.11v-3.499h6.357v3.499zm14.622 6.123c-1.18 0-2.275-.185-3.285-.555a7.9 7.9 0 0 1-2.603-1.621 7.634 7.634 0 0 1-1.707-2.453c-.412-.953-.619-1.998-.619-3.136s.206-2.176.619-3.115a7.552 7.552 0 0 1 1.707-2.475 7.618 7.618 0 0 1 2.603-1.6c1.01-.384 2.105-.576 3.285-.576 1.38 0 2.61.242 3.691.725a7.105 7.105 0 0 1 2.731 2.091l-2.688 2.432c-.483-.569-1.017-1.003-1.6-1.301-.569-.299-1.209-.448-1.92-.448-.611 0-1.173.1-1.685.299s-.953.491-1.323.875c-.355.37-.64.818-.853 1.344-.199.526-.299 1.109-.299 1.749s.1 1.223.299 1.749c.213.526.498.981.853 1.365.37.37.811.654 1.323.853s1.074.299 1.685.299c.711 0 1.351-.149 1.92-.448.583-.299 1.117-.732 1.6-1.301l2.688 2.432a7.383 7.383 0 0 1-2.731 2.091c-1.081.484-2.311.725-3.691.725zM125.813 24V11.477l.939.939h-5.525V9.067h13.312v3.349h-5.504l.939-.939V24h-4.16zm10.886 0V9.067h6.827c1.365 0 2.539.22 3.52.661.996.441 1.764 1.081 2.304 1.92.541.825.811 1.806.811 2.944 0 1.124-.269 2.098-.811 2.923-.54.825-1.308 1.465-2.304 1.92-.981.441-2.155.661-3.52.661h-4.48l1.877-1.835V24h-4.224zm4.224-5.291-1.877-1.941h4.224c.883 0 1.536-.192 1.963-.576.441-.384.661-.917.661-1.6 0-.697-.22-1.237-.661-1.621-.427-.384-1.08-.576-1.963-.576h-4.224l1.877-1.941v8.256zm11.885 1.942c.839.242 1.521.32 2.048.235.54-.1 1.016-.455 1.429-1.067l.725-1.067.363-.405 4.651-9.28h4.117l-6.187 11.541c-.612 1.138-1.344 2.02-2.197 2.645a5.317 5.317 0 0 1-2.773 1.067c-1.011.085-2.069-.1-3.179-.555l1.003-3.115zm4.501 1.088-6.827-12.672h4.459l4.672 9.685-2.304 2.987zm10.4 2.261V9.067h3.477l6.165 10.155h-1.835l6.037-10.155h3.477L185.073 24h-3.904l-.021-9.024h.661l-4.501 7.552h-1.877l-4.629-7.552h.789V24h-3.883zm24.638-9.152h6.933v3.157h-6.933v-3.157zm.298 5.888h7.808V24h-11.989V9.067h11.712v3.264h-7.531v8.405zm20.412-11.669h4.224V24h-4.224V9.067zM207.297 24h-4.224V9.067h4.224V24zm6.059-5.824h-6.357v-3.499h6.357v3.499zM224.009 24V11.477l.939.939h-5.525V9.067h13.313v3.349h-5.505l.939-.939V24h-4.16zm8.643 0 6.592-14.933h4.16L250.017 24h-4.395l-5.163-12.864h1.664L236.96 24h-4.309zm3.605-2.901 1.088-3.115h7.296l1.088 3.115h-9.472z"/><path fill="#fae719" style="fill:var(--color1,#fae719)" d="M1.907 24V9.067h3.477l6.165 10.155H9.714l6.037-10.155h3.477L19.271 24h-3.904l-.021-9.024h.661l-4.501 7.552H9.629L5 14.976h.789V24H1.906zm20.756 0V9.067h4.16v8.768l6.165-8.768h3.968V24h-4.16v-8.747L26.652 24h-3.989zm17.713 0V9.067h6.827c1.365 0 2.539.22 3.52.661.995.441 1.763 1.081 2.304 1.92.54.825.811 1.806.811 2.944 0 1.124-.27 2.098-.811 2.923s-1.309 1.465-2.304 1.92c-.981.441-2.155.661-3.52.661h-4.48l1.877-1.835V24h-4.224zm4.224-5.291-1.877-1.941h4.224c.882 0 1.536-.192 1.963-.576.441-.384.661-.917.661-1.6 0-.697-.221-1.237-.661-1.621-.427-.384-1.081-.576-1.963-.576h-4.224l1.877-1.941v8.256z"/></symbol><symbol id="icon-youtube" viewBox="0 0 32 32"><path fill="#2a2a2a" style="fill:var(--color1,#2a2a2a)" d="M32 16c0 8.837-7.163 16-16 16S0 24.837 0 16 7.163 0 16 0s16 7.163 16 16z"/><path fill="#fff" style="fill:var(--color2,#fff)" d="M23.358 11.939A1.935 1.935 0 0 0 22 10.565c-1.198-.325-6.001-.325-6.001-.325s-4.803 0-6.001.325a1.934 1.934 0 0 0-1.358 1.374c-.321 1.212-.321 3.741-.321 3.741s0 2.529.321 3.741a1.935 1.935 0 0 0 1.358 1.374c1.198.325 6.001.325 6.001.325s4.803 0 6.001-.325a1.935 1.935 0 0 0 1.358-1.374c.321-1.212.321-3.741.321-3.741s0-2.529-.321-3.741z"/><path fill="#2a2a2a" style="fill:var(--color1,#2a2a2a)" d="m14.428 17.977 4.014-2.296-4.014-2.296v4.592z"/><symbol id="icon-arrow" viewBox="0 0 55 32"><path fill="none" stroke="#fff" style="stroke:var(--color1,#fff)" stroke-width="4.571" d="m4.571 4.571 22.857 22.857L50.285 4.571"/></symbol><symbol id="icon-search" viewBox="0 0 32 32"><path stroke-width="1.92" d="M27.2 14.08c0 7.246-5.874 13.12-13.12 13.12S.96 21.326.96 14.08C.96 6.834 6.834.96 14.08.96S27.2 6.834 27.2 14.08zM30.72 30.72l-7.68-7.68"/></symbol><symbol id="icon-star" viewBox="0 0 35 32"><path fill="#fae719" style="fill:var(--color1,#fae719)" d="m17.455 0 4.925 10.676 11.676 1.384-8.632 7.983 2.291 11.532-10.26-5.743-10.26 5.743 2.291-11.532L.854 12.06l11.676-1.384L17.455 0z"/></symbol><symbol id="icon-mastercard" viewBox="0 0 42 32"><path d="M8.987 30.222c0-.595.393-1.084 1.036-1.084.614 0 1.028.468 1.028 1.084s-.414 1.084-1.028 1.084c-.642 0-1.036-.489-1.036-1.084zm2.764 0v-1.694h-.742v.413c-.235-.305-.593-.496-1.078-.496-.957 0-1.707.744-1.707 1.778s.75 1.778 1.707 1.778c.485 0 .843-.191 1.078-.496v.411h.741v-1.694h.001zm25.08 0c0-.595.393-1.084 1.036-1.084.615 0 1.028.468 1.028 1.084s-.414 1.084-1.028 1.084c-.642 0-1.036-.489-1.036-1.084zm2.764 0v-3.053h-.743v1.772c-.235-.305-.593-.496-1.078-.496-.957 0-1.707.744-1.707 1.778s.75 1.778 1.707 1.778c.486 0 .843-.191 1.078-.496v.411h.743v-1.694zm-18.632-1.119c.478 0 .786.298.864.821h-1.771c.079-.489.378-.821.907-.821zm.015-.66c-1 0-1.7.722-1.7 1.778 0 1.077.728 1.778 1.75 1.778.514 0 .985-.127 1.399-.474l-.364-.546c-.286.227-.65.354-.993.354-.478 0-.914-.22-1.021-.829h2.535c.007-.092.015-.184.015-.283-.008-1.055-.666-1.778-1.621-1.778zm8.961 1.777c0-.595.393-1.084 1.036-1.084.614 0 1.028.468 1.028 1.084s-.414 1.084-1.028 1.084c-.642 0-1.036-.489-1.036-1.084zm2.764 0v-1.692h-.742v.413c-.236-.305-.593-.496-1.078-.496-.957 0-1.707.744-1.707 1.778s.75 1.778 1.707 1.778c.486 0 .842-.191 1.078-.496v.411h.742V30.221zm-6.955 0c0 1.027.721 1.778 1.821 1.778.514 0 .857-.114 1.227-.404l-.356-.595a1.506 1.506 0 0 1-.894.305c-.593-.007-1.028-.432-1.028-1.084s.436-1.076 1.028-1.084c.322 0 .615.106.894.305l.356-.595c-.371-.29-.714-.404-1.227-.404-1.1 0-1.821.751-1.821 1.778zm9.568-1.778c-.428 0-.707.199-.9.496v-.41h-.736v3.385h.743v-1.898c0-.56.243-.872.728-.872.159-.002.317.027.464.085l.229-.694a1.59 1.59 0 0 0-.529-.092v-.001zm-19.896.355c-.357-.234-.849-.354-1.392-.354-.865 0-1.421.411-1.421 1.084 0 .552.414.892 1.178.999l.351.05c.407.057.599.163.599.354 0 .262-.27.411-.778.411-.514 0-.885-.163-1.135-.354l-.349.574c.407.297.921.439 1.478.439.986 0 1.557-.46 1.557-1.105 0-.595-.45-.906-1.193-1.013l-.35-.05c-.321-.041-.579-.105-.579-.332 0-.248.243-.396.65-.396.436 0 .857.163 1.064.29l.321-.595-.001-.001zm9.578-.353c-.428 0-.707.199-.899.496v-.412h-.736v3.385h.742v-1.898c0-.56.243-.872.728-.872.159-.002.317.027.464.085l.229-.694a1.594 1.594 0 0 0-.529-.092v.001zm-6.334.084H17.45v-1.027h-.75v1.027h-.692v.673h.692v1.544c0 .786.307 1.253 1.185 1.253.322 0 .693-.099.929-.262l-.214-.63a1.385 1.385 0 0 1-.657.191c-.371 0-.492-.227-.492-.567V29.2h1.214v-.674zM7.566 31.914v-2.125c0-.8-.514-1.339-1.343-1.346-.436-.007-.885.127-1.2.602-.235-.375-.606-.602-1.128-.602-.365 0-.721.106-1 .503v-.419h-.743v3.385h.749v-1.877c0-.588.329-.9.836-.9.493 0 .742.319.742.893v1.884h.75v-1.877c0-.588.343-.9.835-.9.507 0 .749.319.749.892v1.884l.752.002z"/><path fill="#18191a" style="fill:var(--color2,#18191a)" d="M26.423 22.776H15.175V2.726h11.249v20.05z"/><path d="M15.889 12.751c0-4.067 1.92-7.69 4.91-10.025A12.86 12.86 0 0 0 12.855 0C5.755 0 0 5.709 0 12.751s5.755 12.751 12.855 12.751a12.872 12.872 0 0 0 7.945-2.726c-2.99-2.334-4.91-5.958-4.91-10.025z"/><path d="M41.6 12.751c0 7.042-5.755 12.751-12.855 12.751a12.874 12.874 0 0 1-7.946-2.726c2.991-2.335 4.911-5.958 4.911-10.025s-1.92-7.69-4.911-10.025A12.872 12.872 0 0 1 28.744 0c7.1 0 12.855 5.709 12.855 12.751z"/></symbol><symbol id="icon-visa" viewBox="0 0 54 32"><path d="M4.162 31.999c11.735-5.073 28.2-9.671 50.008-5.067l.229-5.579c-23.008-2.534-39.517 4.858-50.236 10.096v.55zM16.435 17.287 21.521.371h4.538l-5.086 16.916h-4.538zM14.406.376l-4.082 7.171c-1.039 1.878-1.647 2.827-1.939 4.013h-.062c.072-1.505-.136-3.352-.155-4.396L7.717.375H.078L-.001.83c1.963 0 3.126.994 3.447 3.029l1.489 13.428h4.701L19.142.375h-4.736zm35.291 16.911-.125-2.516-5.666-.005-1.159 2.52H37.82L46.753.402H52.8l1.513 16.884h-4.616zm-.521-9.978c-.05-1.25-.093-2.947-.008-3.974h-.067c-.276.84-1.462 3.362-1.984 4.602l-1.688 3.708h3.979l-.231-4.336zM30.823 17.768c-3.204 0-5.33-1.025-6.848-1.939l2.162-3.33c1.363.769 2.433 1.656 4.894 1.656.792 0 1.554-.208 1.987-.964.631-1.1-.146-1.692-1.918-2.705l-.875-.574c-2.628-1.811-3.764-3.532-2.527-6.535C28.49 1.456 30.577 0 34.022 0c2.375 0 4.602 1.036 5.9 2.049l-2.485 2.94c-1.266-1.033-2.316-1.556-3.517-1.556-.958 0-1.685.373-1.936.875-.473.945.153 1.589 1.534 2.454l1.041.668c3.19 2.03 3.951 4.158 3.151 6.148-1.375 3.425-4.068 4.19-6.885 4.19z"/></symbol><symbol id="icon-privatbank" viewBox="0 0 190 32"><path d="M36.093 27.619H31.4V11.047h16.895v16.572h-4.692V14.266h-7.51v13.353zM50.569 15.593v16.408h4.325V26.39c1.449 1.563 3.81 1.681 4.379 1.681 4.125 0 6.656-2.629 6.656-6.441 0-3.977-2.503-6.486-6.57-6.486-1.025 0-3.016.166-4.666 1.894h-.085l.028-1.446h-4.067zm4.124 5.99c0-3.361 2.077-4.024 3.386-4.024 1.28 0 3.356.663 3.356 4.024 0 2.084-.881 4.074-3.356 4.074-2.531 0-3.386-1.989-3.386-4.074zM76.652 26.177c-1.592 1.49-3.126 1.894-4.834 1.894-4.665 0-4.836-3.504-4.836-4.948v-7.53h4.324v6.961c0 2.392.827 3.103 2.418 3.103 2.729 0 2.928-2.439 2.928-3.315v-6.749h4.326v12.028h-4.326v-1.443zM87.18 22.553h2.646c2.046 0 2.474.616 2.474 1.421 0 .52-.286 1.231-2.42 1.231h-2.699v-2.652zm-4.324-6.961V27.62h8.59c3.129 0 5.29-.615 5.29-3.077 0-1.894-1.054-2.723-3.442-3.148v-.071c1.565-.213 2.93-1.184 2.93-2.817 0-2.913-3.414-2.913-4.75-2.913h-8.618zm4.324 2.416h2.33c1.224 0 2.275.189 2.275 1.183 0 1.09-1.649 1.114-2.36 1.114h-2.246v-2.296zM102.194 19.476c0-1.776 1.877-1.917 2.646-1.917.484 0 2.274.024 2.333 1.586v.331c-.086 1.184-1.223.947-4.408 1.35-2.618.355-5.378 1.017-5.378 3.765 0 .995.427 3.481 5.035 3.481 1.765 0 3.699-.451 4.835-1.634h.087l.369 1.183h4.55v-.212c-.825-.166-.882-.971-.854-2.273l.085-5.493c.03-1.396-.113-4.497-6.626-4.497-1.565 0-6.599.142-6.798 4.332h4.124zm5.007 3.173c0 2.415-2.105 3.008-3.156 3.008-.798 0-2.22-.261-2.22-1.397 0-1.35 1.621-1.611 2.532-1.729 1.678-.237 1.535-.165 2.844-.64v.758zM111.982 18.008v-2.416h13.879v2.416h-4.778v9.611h-4.322v-9.611h-4.778zM131.379 14.266h10.779v-3.219h-15.474v16.572h9.501c4.609 0 7.566-1.609 7.566-4.995 0-5.302-5.916-5.422-7.566-5.422h-4.806v-2.936zm0 6.156h3.895c1.141 0 3.414.119 3.414 2.107 0 1.563-1.65 1.87-3.498 1.87h-3.811v-3.977zM149.385 19.476c0-1.776 1.878-1.917 2.644-1.917.484 0 2.278.024 2.334 1.586v.331c-.086 1.184-1.223.947-4.411 1.35-2.615.355-5.374 1.017-5.374 3.765 0 .995.426 3.481 5.034 3.481 1.763 0 3.698-.451 4.835-1.634h.085l.37 1.183h4.55v-.212c-.822-.166-.882-.971-.852-2.273l.085-5.493c.029-1.396-.114-4.497-6.629-4.497-1.562 0-6.598.142-6.797 4.332h4.125zm5.005 3.173c0 2.415-2.105 3.008-3.157 3.008-.796 0-2.218-.261-2.218-1.397 0-1.35 1.62-1.611 2.53-1.729 1.679-.237 1.537-.165 2.846-.64v.758zM164.858 27.62h-4.324V15.592h4.324v4.523h5.206v-4.523h4.324V27.62h-4.324v-5.09h-5.206v5.09zM185.31 15.592h4.806l-5.944 5.635 6.23 6.393h-5.065l-4.664-5.255h-.084v5.255h-4.322V15.592h4.322v4.831h.084l4.638-4.831zM0 27.657h10.83V16.841H0v10.816z"/><path d="M21.986 5.718v16.227h-2.209C18.823 13.92 13.775 8.879 5.739 7.926V5.718h16.248zM.013 0v13.463h2.864c7.536 0 11.357 3.816 11.357 11.34v2.86h13.478V-.001H.013z"/></symbol></symbol></defs></svg>