<svg aria-hidden="true" style="width:0;height:0;position:absolute;overflow:hidden" xmlns="http://www.w3.org/2000/svg"><defs><symbol id="icon-burger" viewBox="0 0 43 32"><path stroke-width="3.556" d="M0 1.778h42.667M0 16h42.667M0 30.222h42.667"/></symbol><symbol id="icon-balance" viewBox="0 0 32 32"><path stroke-width="1.333" d="M8 31.333h16M31.333 20c0 1.075-.523 1.881-1.37 2.445-.866.577-2.063.888-3.297.888s-2.431-.311-3.297-.888c-.846-.564-1.37-1.371-1.37-2.445 0-2.483 1.256-5.354 2.579-7.669a35.511 35.511 0 0 1 2.088-3.224 35.41 35.41 0 0 1 2.088 3.224c1.323 2.316 2.579 5.187 2.579 7.669zM10 20c0 1.075-.523 1.881-1.37 2.445-.866.577-2.062.888-3.297.888s-2.431-.311-3.297-.888C1.19 21.881.666 21.074.666 20c0-2.483 1.256-5.354 2.579-7.669a35.511 35.511 0 0 1 2.088-3.224 35.41 35.41 0 0 1 2.088 3.224C8.744 14.647 10 17.518 10 20zM16 6.667v24M19.333 4h7.333M5.333 4h7.333M19.333 4a3.333 3.333 0 1 1-6.665 0 3.333 3.333 0 0 1 6.665 0z"/></symbol><symbol id="icon-cabinet" viewBox="0 0 32 32"><path stroke-width="1.231" d="M16 19.692c-8.157 0-14.769 4.28-14.769 11.077h29.538c0-6.797-6.612-11.077-14.769-11.077zM23.385 8.615a7.385 7.385 0 1 1-14.77 0 7.385 7.385 0 0 1 14.77 0z"/></symbol><symbol id="icon-cart" viewBox="0 0 32 32"><path stroke-width="1.28" d="M30.08 28.8a2.56 2.56 0 1 1-5.12 0 2.56 2.56 0 0 1 5.12 0zM17.28 28.8a2.56 2.56 0 1 1-5.12 0 2.56 2.56 0 0 1 5.12 0zM30.72 23.68h-19.2L8.887 8.32M0 1.28h7.68l1.207 7.04m0 0H30.72l-3.84 11.52h-16"/></symbol><symbol id="icon-catalog" viewBox="0 0 32 32"><path d="M0 0h6.667v6.667H0V0zM25.333 0H32v6.667h-6.667V0zM0 25.333h6.667V32H0v-6.667zM25.333 25.333H32V32h-6.667v-6.667z"/></symbol><symbol id="icon-facebook" viewBox="0 0 32 32"><path fill="#2a2a2a" style="fill:var(--color1,#2a2a2a)" d="M32 16c0 8.837-7.163 16-16 16S0 24.837 0 16 7.163 0 16 0s16 7.163 16 16z"/><path fill="#fff" style="fill:var(--color2,#fff)" d="m19.725 14.18-.431 2.78h-2.266v6.72h-3.039v-6.72H11.52v-2.78h2.469v-2.119c0-2.41 1.452-3.742 3.674-3.742 1.064 0 2.177.188 2.177.188v2.367h-1.226c-1.208 0-1.585.741-1.585 1.502v1.804h2.697z"/></symbol><symbol id="icon-heart" viewBox="0 0 32 32"><path stroke-width="1.333" d="M28.837 16.379 16 30.99 3.163 16.379c-3.321-3.698-3.328-9.566-.02-13.272C4.82 1.559 6.732.666 8.889.666s4.058.89 5.726 2.748L16 4.956l1.385-1.542c3.284-3.656 8.437-3.664 11.729-.022 1.395 1.872 2.22 4.036 2.22 6.504 0 2.473-.827 4.624-2.496 6.482z"/></symbol><symbol id="icon-instagram" viewBox="0 0 32 32"><path fill="#2a2a2a" style="fill:var(--color1,#2a2a2a)" d="M32 16c0 8.837-7.163 16-16 16S0 24.837 0 16 7.163 0 16 0s16 7.163 16 16z"/><path fill="#fff" style="fill:var(--color2,#fff)" d="M15.999 8.32c-2.086 0-2.348.009-3.167.046-.818.037-1.376.167-1.864.357-.505.196-.934.459-1.36.886s-.69.855-.886 1.36c-.19.488-.32 1.047-.357 1.864-.036.819-.046 1.081-.046 3.167s.009 2.347.046 3.166c.038.818.167 1.376.357 1.864.196.505.459.934.886 1.36s.855.69 1.36.886c.489.19 1.047.319 1.864.357.819.037 1.081.046 3.166.046s2.347-.009 3.166-.046c.818-.037 1.376-.167 1.865-.357.505-.196.933-.459 1.36-.886s.69-.855.886-1.36c.189-.488.318-1.047.357-1.864.037-.819.046-1.08.046-3.166s-.01-2.348-.046-3.167c-.038-.818-.168-1.376-.357-1.864-.197-.505-.459-.934-.886-1.36s-.854-.69-1.36-.886c-.49-.19-1.048-.319-1.866-.357-.819-.037-1.08-.046-3.166-.046h.002zm-.689 1.384h.689c2.051 0 2.294.007 3.103.044.749.034 1.155.159 1.426.264.358.139.614.306.883.574s.435.525.575.883c.105.27.23.677.264 1.426.037.81.045 1.053.045 3.102s-.008 2.293-.045 3.102c-.034.749-.159 1.155-.264 1.426-.139.358-.306.614-.575.882s-.524.435-.883.574c-.27.106-.677.23-1.426.265-.81.037-1.053.045-3.103.045s-2.294-.008-3.103-.045c-.749-.035-1.155-.16-1.426-.265-.358-.139-.614-.306-.883-.574s-.435-.524-.575-.883c-.105-.27-.23-.677-.264-1.426-.037-.81-.044-1.053-.044-3.104s.007-2.293.044-3.102c.034-.749.159-1.155.264-1.426.139-.358.306-.614.575-.883s.525-.435.883-.575c.271-.106.677-.23 1.426-.265.708-.032.983-.042 2.414-.043v.002zm4.789 1.276a.925.925 0 0 0-.851.569.917.917 0 0 0 .2 1.005.916.916 0 0 0 1.004.199.929.929 0 0 0 .569-.852.922.922 0 0 0-.922-.922zm-4.1 1.076a3.944 3.944 0 1 0 0 7.889 3.944 3.944 0 0 0 0-7.889zm0 1.384a2.56 2.56 0 1 1 0 5.12 2.56 2.56 0 0 1 0-5.12z"/></symbol><symbol id="icon-logo" viewBox="0 0 257 32"><path fill="#fae719" style="fill:var(--color1,#fae719)" d="M62.667 0h194.667v32H62.667V0z"/><path fill="#18191a" style="fill:var(--color2,#18191a)" d="M71.471 24V9.067h4.16v8.768l6.165-8.768h3.968V24h-4.16v-8.747L75.46 24h-3.989zM99.168 9.067h4.224V24h-4.224V9.067zM93.408 24h-4.224V9.067h4.224V24zm6.059-5.824H93.11v-3.499h6.357v3.499zm14.622 6.123c-1.18 0-2.275-.185-3.285-.555a7.9 7.9 0 0 1-2.603-1.621 7.634 7.634 0 0 1-1.707-2.453c-.412-.953-.619-1.998-.619-3.136s.206-2.176.619-3.115a7.552 7.552 0 0 1 1.707-2.475 7.618 7.618 0 0 1 2.603-1.6c1.01-.384 2.105-.576 3.285-.576 1.38 0 2.61.242 3.691.725a7.105 7.105 0 0 1 2.731 2.091l-2.688 2.432c-.483-.569-1.017-1.003-1.6-1.301-.569-.299-1.209-.448-1.92-.448-.611 0-1.173.1-1.685.299s-.953.491-1.323.875c-.355.37-.64.818-.853 1.344-.199.526-.299 1.109-.299 1.749s.1 1.223.299 1.749c.213.526.498.981.853 1.365.37.37.811.654 1.323.853s1.074.299 1.685.299c.711 0 1.351-.149 1.92-.448.583-.299 1.117-.732 1.6-1.301l2.688 2.432a7.383 7.383 0 0 1-2.731 2.091c-1.081.484-2.311.725-3.691.725zM125.813 24V11.477l.939.939h-5.525V9.067h13.312v3.349h-5.504l.939-.939V24h-4.16zm10.886 0V9.067h6.827c1.365 0 2.539.22 3.52.661.996.441 1.764 1.081 2.304 1.92.541.825.811 1.806.811 2.944 0 1.124-.269 2.098-.811 2.923-.54.825-1.308 1.465-2.304 1.92-.981.441-2.155.661-3.52.661h-4.48l1.877-1.835V24h-4.224zm4.224-5.291-1.877-1.941h4.224c.883 0 1.536-.192 1.963-.576.441-.384.661-.917.661-1.6 0-.697-.22-1.237-.661-1.621-.427-.384-1.08-.576-1.963-.576h-4.224l1.877-1.941v8.256zm11.885 1.942c.839.242 1.521.32 2.048.235.54-.1 1.016-.455 1.429-1.067l.725-1.067.363-.405 4.651-9.28h4.117l-6.187 11.541c-.612 1.138-1.344 2.02-2.197 2.645a5.317 5.317 0 0 1-2.773 1.067c-1.011.085-2.069-.1-3.179-.555l1.003-3.115zm4.501 1.088-6.827-12.672h4.459l4.672 9.685-2.304 2.987zm10.4 2.261V9.067h3.477l6.165 10.155h-1.835l6.037-10.155h3.477L185.073 24h-3.904l-.021-9.024h.661l-4.501 7.552h-1.877l-4.629-7.552h.789V24h-3.883zm24.638-9.152h6.933v3.157h-6.933v-3.157zm.298 5.888h7.808V24h-11.989V9.067h11.712v3.264h-7.531v8.405zm20.412-11.669h4.224V24h-4.224V9.067zM207.297 24h-4.224V9.067h4.224V24zm6.059-5.824h-6.357v-3.499h6.357v3.499zM224.009 24V11.477l.939.939h-5.525V9.067h13.313v3.349h-5.505l.939-.939V24h-4.16zm8.643 0 6.592-14.933h4.16L250.017 24h-4.395l-5.163-12.864h1.664L236.96 24h-4.309zm3.605-2.901 1.088-3.115h7.296l1.088 3.115h-9.472z"/><path fill="#fae719" style="fill:var(--color1,#fae719)" d="M1.907 24V9.067h3.477l6.165 10.155H9.714l6.037-10.155h3.477L19.271 24h-3.904l-.021-9.024h.661l-4.501 7.552H9.629L5 14.976h.789V24H1.906zm20.756 0V9.067h4.16v8.768l6.165-8.768h3.968V24h-4.16v-8.747L26.652 24h-3.989zm17.713 0V9.067h6.827c1.365 0 2.539.22 3.52.661.995.441 1.763 1.081 2.304 1.92.54.825.811 1.806.811 2.944 0 1.124-.27 2.098-.811 2.923s-1.309 1.465-2.304 1.92c-.981.441-2.155.661-3.52.661h-4.48l1.877-1.835V24h-4.224zm4.224-5.291-1.877-1.941h4.224c.882 0 1.536-.192 1.963-.576.441-.384.661-.917.661-1.6 0-.697-.221-1.237-.661-1.621-.427-.384-1.081-.576-1.963-.576h-4.224l1.877-1.941v8.256z"/></symbol><symbol id="icon-youtube" viewBox="0 0 32 32"><path fill="#2a2a2a" style="fill:var(--color1,#2a2a2a)" d="M32 16c0 8.837-7.163 16-16 16S0 24.837 0 16 7.163 0 16 0s16 7.163 16 16z"/><path fill="#fff" style="fill:var(--color2,#fff)" d="M23.358 11.939A1.935 1.935 0 0 0 22 10.565c-1.198-.325-6.001-.325-6.001-.325s-4.803 0-6.001.325a1.934 1.934 0 0 0-1.358 1.374c-.321 1.212-.321 3.741-.321 3.741s0 2.529.321 3.741a1.935 1.935 0 0 0 1.358 1.374c1.198.325 6.001.325 6.001.325s4.803 0 6.001-.325a1.935 1.935 0 0 0 1.358-1.374c.321-1.212.321-3.741.321-3.741s0-2.529-.321-3.741z"/><path fill="#2a2a2a" style="fill:var(--color1,#2a2a2a)" d="m14.428 17.977 4.014-2.296-4.014-2.296v4.592z"/><symbol id="icon-arrow" viewBox="0 0 55 32"><path fill="none" stroke="#fff" style="stroke:var(--color1,#fff)" stroke-width="4.571" d="m4.571 4.571 22.857 22.857L50.285 4.571"/></symbol><symbol id="icon-search" viewBox="0 0 32 32"><path stroke-width="1.92" d="M27.2 14.08c0 7.246-5.874 13.12-13.12 13.12S.96 21.326.96 14.08C.96 6.834 6.834.96 14.08.96S27.2 6.834 27.2 14.08zM30.72 30.72l-7.68-7.68"/></symbol></symbol></defs></svg>