<svg width="72" height="72" viewBox="0 0 72 72" fill="none" xmlns="http://www.w3.org/2000/svg">
<path d="M71 24.3333C71 24.3333 71 1 36 1C1 1 1 24.3333 1 24.3333C1 24.3333 6.14807 21.4167 9.75 21.4167C13.3519 21.4167 18.5 24.3333 18.5 24.3333C18.5 24.3333 23.6481 21.4167 27.25 21.4167C30.8519 21.4167 36 24.3333 36 24.3333C36 24.3333 41.1481 21.4167 44.75 21.4167C48.3519 21.4167 53.5 24.3333 53.5 24.3333C53.5 24.3333 58.6481 21.4167 62.25 21.4167C65.8519 21.4167 71 24.3333 71 24.3333Z" fill="#FAE719"/>
<path d="M48.6667 45.6667V71H23.3333V45.6667M48.6667 45.6667L71 24.3333M48.6667 45.6667H41.8333M23.3333 45.6667L1 24.3333M23.3333 45.6667H30.1667M71 24.3333C71 24.3333 71 1 36 1C1 1 1 24.3333 1 24.3333M71 24.3333C71 24.3333 65.8519 21.4167 62.25 21.4167C58.6481 21.4167 53.5 24.3333 53.5 24.3333M1 24.3333C1 24.3333 6.14807 21.4167 9.75 21.4167C13.3519 21.4167 18.5 24.3333 18.5 24.3333M18.5 24.3333L30.1667 45.6667M18.5 24.3333C18.5 24.3333 23.6481 21.4167 27.25 21.4167C30.8519 21.4167 36 24.3333 36 24.3333M36 24.3333V45.6667M36 24.3333C36 24.3333 41.1481 21.4167 44.75 21.4167C48.3519 21.4167 53.5 24.3333 53.5 24.3333M53.5 24.3333L41.8333 45.6667M41.8333 45.6667H36M36 45.6667H30.1667" stroke="#18191A" stroke-width="1.5"/>
</svg>
