<svg width="72" height="73" viewBox="0 0 72 73" fill="none" xmlns="http://www.w3.org/2000/svg">
<path d="M27.25 37H44.75H50.5833V19.5H36H21.4167V37H27.25Z" fill="#FAE719"/>
<path d="M27.25 37V72H44.75V37H27.25Z" fill="#FAE719"/>
<path d="M9.75 37H1V19.5H9.75M9.75 37V72H27.25M9.75 37H21.4167M62.25 37H71V19.5H62.25M62.25 37V72H44.75M62.25 37H50.5833M27.25 72V37M27.25 72H44.75M27.25 37H44.75M27.25 37H21.4167M44.75 37V72M44.75 37H50.5833M21.4167 37V19.5M21.4167 19.5H36M21.4167 19.5H9.75M50.5833 37V19.5M50.5833 19.5H36M50.5833 19.5H62.25M36 19.5L56.4167 11.8438M36 19.5L15.5833 11.8438M36 19.5L31.1389 13.6667M36 19.5L40.8611 13.6667M62.25 19.5L59.3333 10.75L56.4167 11.8438M56.4167 11.8438L50.5833 2L40.8611 13.6667M9.75 19.5L12.6667 10.75L15.5833 11.8438M15.5833 11.8438L21.4167 2L31.1389 13.6667M31.1389 13.6667C31.1389 13.6667 33.7861 10.75 36 10.75C38.2139 10.75 40.8611 13.6667 40.8611 13.6667" stroke="#18191A" stroke-width="1.5"/>
</svg>
