<svg aria-hidden="true" style="position: absolute; width: 0; height: 0; overflow: hidden;" version="1.1" xmlns="http://www.w3.org/2000/svg" xmlns:xlink="http://www.w3.org/1999/xlink">
<defs>
<symbol id="icon-burger" viewBox="0 0 43 32">
<path stroke-linejoin="miter" stroke-linecap="butt" stroke-miterlimit="4" stroke-width="3.5556" d="M0 1.778h42.667"></path>
<path stroke-linejoin="miter" stroke-linecap="butt" stroke-miterlimit="4" stroke-width="3.5556" d="M0 16h42.667"></path>
<path stroke-linejoin="miter" stroke-linecap="butt" stroke-miterlimit="4" stroke-width="3.5556" d="M0 30.222h42.667"></path>
</symbol>
<symbol id="icon-balance" viewBox="0 0 32 32">
<path stroke-linejoin="miter" stroke-linecap="butt" stroke-miterlimit="4" stroke-width="1.3333" d="M8 31.333h16"></path>
<path stroke-linejoin="miter" stroke-linecap="butt" stroke-miterlimit="4" stroke-width="1.3333" d="M31.333 20c0 1.075-0.523 1.881-1.37 2.445-0.866 0.577-2.063 0.888-3.297 0.888s-2.431-0.311-3.297-0.888c-0.846-0.564-1.37-1.371-1.37-2.445 0-2.483 1.256-5.354 2.579-7.669 0.654-1.144 1.308-2.126 1.799-2.821 0.104-0.148 0.201-0.282 0.289-0.403 0.088 0.12 0.184 0.255 0.289 0.403 0.491 0.696 1.146 1.677 1.799 2.821 1.323 2.316 2.579 5.187 2.579 7.669z"></path>
<path stroke-linejoin="miter" stroke-linecap="butt" stroke-miterlimit="4" stroke-width="1.3333" d="M10 20c0 1.075-0.523 1.881-1.37 2.445-0.866 0.577-2.062 0.888-3.297 0.888s-2.431-0.311-3.297-0.888c-0.846-0.564-1.37-1.371-1.37-2.445 0-2.483 1.256-5.354 2.579-7.669 0.654-1.144 1.308-2.126 1.799-2.821 0.104-0.148 0.201-0.282 0.289-0.403 0.088 0.12 0.184 0.255 0.289 0.403 0.491 0.696 1.146 1.677 1.799 2.821 1.323 2.316 2.579 5.187 2.579 7.669z"></path>
<path stroke-linejoin="miter" stroke-linecap="butt" stroke-miterlimit="4" stroke-width="1.3333" d="M16 6.667v24"></path>
<path stroke-linejoin="miter" stroke-linecap="butt" stroke-miterlimit="4" stroke-width="1.3333" d="M19.333 4h7.333"></path>
<path stroke-linejoin="miter" stroke-linecap="butt" stroke-miterlimit="4" stroke-width="1.3333" d="M5.333 4h7.333"></path>
<path stroke-linejoin="miter" stroke-linecap="butt" stroke-miterlimit="4" stroke-width="1.3333" d="M19.333 4c0 1.841-1.492 3.333-3.333 3.333s-3.333-1.492-3.333-3.333c0-1.841 1.492-3.333 3.333-3.333s3.333 1.492 3.333 3.333z"></path>
</symbol>
<symbol id="icon-cabinet" viewBox="0 0 32 32">
<path stroke-linejoin="miter" stroke-linecap="butt" stroke-miterlimit="4" stroke-width="1.2308" d="M16 19.692c-8.157 0-14.769 4.28-14.769 11.077h29.538c0-6.797-6.612-11.077-14.769-11.077z"></path>
<path stroke-linejoin="miter" stroke-linecap="butt" stroke-miterlimit="4" stroke-width="1.2308" d="M23.385 8.615c0 4.078-3.306 7.385-7.385 7.385s-7.385-3.306-7.385-7.385c0-4.078 3.306-7.385 7.385-7.385s7.385 3.306 7.385 7.385z"></path>
</symbol>
<symbol id="icon-cart" viewBox="0 0 32 32">
<path stroke-linejoin="miter" stroke-linecap="butt" stroke-miterlimit="4" stroke-width="1.28" d="M30.080 28.8c0 1.414-1.146 2.56-2.56 2.56s-2.56-1.146-2.56-2.56c0-1.414 1.146-2.56 2.56-2.56s2.56 1.146 2.56 2.56z"></path>
<path stroke-linejoin="miter" stroke-linecap="butt" stroke-miterlimit="4" stroke-width="1.28" d="M17.28 28.8c0 1.414-1.146 2.56-2.56 2.56s-2.56-1.146-2.56-2.56c0-1.414 1.146-2.56 2.56-2.56s2.56 1.146 2.56 2.56z"></path>
<path stroke-linejoin="miter" stroke-linecap="butt" stroke-miterlimit="4" stroke-width="1.28" d="M30.72 23.68h-19.2l-2.633-15.36M0 1.28h7.68l1.207 7.040M8.887 8.32h21.833l-3.84 11.52h-16"></path>
</symbol>
<symbol id="icon-catalog" viewBox="0 0 32 32">
<path d="M0 0h6.667v6.667h-6.667v-6.667z"></path>
<path d="M25.333 0h6.667v6.667h-6.667v-6.667z"></path>
<path d="M0 25.333h6.667v6.667h-6.667v-6.667z"></path>
<path d="M25.333 25.333h6.667v6.667h-6.667v-6.667z"></path>
</symbol>
<symbol id="icon-facebook" viewBox="0 0 32 32">
<path fill="#2a2a2a" style="fill: var(--color1, #2a2a2a)" d="M32 16c0 8.837-7.163 16-16 16s-16-7.163-16-16c0-8.837 7.163-16 16-16s16 7.163 16 16z"></path>
<path fill="#fff" style="fill: var(--color2, #fff)" d="M19.725 14.18l-0.431 2.78h-2.266v6.72h-3.039v-6.72h-2.469v-2.78h2.469v-2.119c0-2.41 1.452-3.742 3.674-3.742 1.064 0 2.177 0.188 2.177 0.188v2.367h-1.226c-1.208 0-1.585 0.741-1.585 1.502v1.804h2.697z"></path>
</symbol>
<symbol id="icon-heart" viewBox="0 0 32 32">
<path stroke-linejoin="miter" stroke-linecap="butt" stroke-miterlimit="4" stroke-width="1.3333" d="M28.837 16.379v-0l-12.837 14.611-12.837-14.611c-3.321-3.698-3.328-9.566-0.020-13.272 1.677-1.548 3.589-2.441 5.746-2.441s4.058 0.89 5.726 2.748l1.385 1.542 1.385-1.542c3.284-3.656 8.437-3.664 11.729-0.022 1.395 1.872 2.22 4.036 2.22 6.504 0 2.473-0.827 4.624-2.496 6.482z"></path>
</symbol>
<symbol id="icon-instagram" viewBox="0 0 32 32">
<path fill="#2a2a2a" style="fill: var(--color1, #2a2a2a)" d="M32 16c0 8.837-7.163 16-16 16s-16-7.163-16-16c0-8.837 7.163-16 16-16s16 7.163 16 16z"></path>
<path fill="#fff" style="fill: var(--color2, #fff)" d="M15.999 8.32c-2.086 0-2.348 0.009-3.167 0.046-0.818 0.037-1.376 0.167-1.864 0.357-0.505 0.196-0.934 0.459-1.36 0.886s-0.69 0.855-0.886 1.36c-0.19 0.488-0.32 1.047-0.357 1.864-0.036 0.819-0.046 1.081-0.046 3.167s0.009 2.347 0.046 3.166c0.038 0.818 0.167 1.376 0.357 1.864 0.196 0.505 0.459 0.934 0.886 1.36s0.855 0.69 1.36 0.886c0.489 0.19 1.047 0.319 1.864 0.357 0.819 0.037 1.081 0.046 3.166 0.046s2.347-0.009 3.166-0.046c0.818-0.037 1.376-0.167 1.865-0.357 0.505-0.196 0.933-0.459 1.36-0.886s0.69-0.855 0.886-1.36c0.189-0.488 0.318-1.047 0.357-1.864 0.037-0.819 0.046-1.080 0.046-3.166s-0.010-2.348-0.046-3.167c-0.038-0.818-0.168-1.376-0.357-1.864-0.197-0.505-0.459-0.934-0.886-1.36s-0.854-0.69-1.36-0.886c-0.49-0.19-1.048-0.319-1.866-0.357-0.819-0.037-1.080-0.046-3.166-0.046h0.002zM15.31 9.704c0.204-0 0.433 0 0.689 0 2.051 0 2.294 0.007 3.103 0.044 0.749 0.034 1.155 0.159 1.426 0.264 0.358 0.139 0.614 0.306 0.883 0.574s0.435 0.525 0.575 0.883c0.105 0.27 0.23 0.677 0.264 1.426 0.037 0.81 0.045 1.053 0.045 3.102s-0.008 2.293-0.045 3.102c-0.034 0.749-0.159 1.155-0.264 1.426-0.139 0.358-0.306 0.614-0.575 0.882s-0.524 0.435-0.883 0.574c-0.27 0.106-0.677 0.23-1.426 0.265-0.81 0.037-1.053 0.045-3.103 0.045s-2.294-0.008-3.103-0.045c-0.749-0.035-1.155-0.16-1.426-0.265-0.358-0.139-0.614-0.306-0.883-0.574s-0.435-0.524-0.575-0.883c-0.105-0.27-0.23-0.677-0.264-1.426-0.037-0.81-0.044-1.053-0.044-3.104s0.007-2.293 0.044-3.102c0.034-0.749 0.159-1.155 0.264-1.426 0.139-0.358 0.306-0.614 0.575-0.883s0.525-0.435 0.883-0.575c0.271-0.106 0.677-0.23 1.426-0.265 0.708-0.032 0.983-0.042 2.414-0.043v0.002zM20.099 10.98c-0.182 0-0.36 0.054-0.512 0.155s-0.27 0.245-0.339 0.414c-0.070 0.168-0.088 0.354-0.052 0.533s0.123 0.343 0.252 0.472c0.129 0.129 0.293 0.217 0.472 0.252s0.364 0.017 0.532-0.053c0.168-0.070 0.312-0.188 0.414-0.34s0.155-0.33 0.155-0.512c0-0.509-0.413-0.922-0.922-0.922v0zM15.999 12.056c-2.178 0-3.944 1.766-3.944 3.944s1.766 3.943 3.944 3.943c2.178 0 3.944-1.765 3.944-3.943s-1.766-3.944-3.944-3.944h0zM15.999 13.44c1.414 0 2.56 1.146 2.56 2.56s-1.146 2.56-2.56 2.56c-1.414 0-2.56-1.146-2.56-2.56s1.146-2.56 2.56-2.56v0z"></path>
</symbol>
<symbol id="icon-logo" viewBox="0 0 257 32">
<path fill="#fae719" style="fill: var(--color1, #fae719)" d="M62.667 0h194.667v32h-194.667v-32z"></path>
<path fill="#18191a" style="fill: var(--color2, #18191a)" d="M71.471 24v-14.933h4.16v8.768l6.165-8.768h3.968v14.933h-4.16v-8.747l-6.144 8.747h-3.989zM99.168 9.067h4.224v14.933h-4.224v-14.933zM93.408 24h-4.224v-14.933h4.224v14.933zM99.467 18.176h-6.357v-3.499h6.357v3.499zM114.089 24.299c-1.18 0-2.275-0.185-3.285-0.555-0.995-0.384-1.863-0.924-2.603-1.621-0.725-0.697-1.294-1.515-1.707-2.453-0.412-0.953-0.619-1.998-0.619-3.136s0.206-2.176 0.619-3.115c0.413-0.953 0.981-1.778 1.707-2.475 0.74-0.697 1.607-1.23 2.603-1.6 1.010-0.384 2.105-0.576 3.285-0.576 1.38 0 2.61 0.242 3.691 0.725 1.095 0.484 2.005 1.18 2.731 2.091l-2.688 2.432c-0.483-0.569-1.017-1.003-1.6-1.301-0.569-0.299-1.209-0.448-1.92-0.448-0.611 0-1.173 0.1-1.685 0.299s-0.953 0.491-1.323 0.875c-0.355 0.37-0.64 0.818-0.853 1.344-0.199 0.526-0.299 1.109-0.299 1.749s0.1 1.223 0.299 1.749c0.213 0.526 0.498 0.981 0.853 1.365 0.37 0.37 0.811 0.654 1.323 0.853s1.074 0.299 1.685 0.299c0.711 0 1.351-0.149 1.92-0.448 0.583-0.299 1.117-0.732 1.6-1.301l2.688 2.432c-0.725 0.896-1.635 1.593-2.731 2.091-1.081 0.484-2.311 0.725-3.691 0.725zM125.813 24v-12.523l0.939 0.939h-5.525v-3.349h13.312v3.349h-5.504l0.939-0.939v12.523h-4.16zM136.699 24v-14.933h6.827c1.365 0 2.539 0.22 3.52 0.661 0.996 0.441 1.764 1.081 2.304 1.92 0.541 0.825 0.811 1.806 0.811 2.944 0 1.124-0.269 2.098-0.811 2.923-0.54 0.825-1.308 1.465-2.304 1.92-0.981 0.441-2.155 0.661-3.52 0.661h-4.48l1.877-1.835v5.739h-4.224zM140.923 18.709l-1.877-1.941h4.224c0.883 0 1.536-0.192 1.963-0.576 0.441-0.384 0.661-0.917 0.661-1.6 0-0.697-0.22-1.237-0.661-1.621-0.427-0.384-1.080-0.576-1.963-0.576h-4.224l1.877-1.941v8.256zM152.808 20.651c0.839 0.242 1.521 0.32 2.048 0.235 0.54-0.1 1.016-0.455 1.429-1.067l0.725-1.067 0.363-0.405 4.651-9.28h4.117l-6.187 11.541c-0.612 1.138-1.344 2.020-2.197 2.645-0.84 0.626-1.764 0.981-2.773 1.067-1.011 0.085-2.069-0.1-3.179-0.555l1.003-3.115zM157.309 21.739l-6.827-12.672h4.459l4.672 9.685-2.304 2.987zM167.709 24v-14.933h3.477l6.165 10.155h-1.835l6.037-10.155h3.477l0.043 14.933h-3.904l-0.021-9.024h0.661l-4.501 7.552h-1.877l-4.629-7.552h0.789v9.024h-3.883zM192.347 14.848h6.933v3.157h-6.933v-3.157zM192.645 20.736h7.808v3.264h-11.989v-14.933h11.712v3.264h-7.531v8.405zM213.057 9.067h4.224v14.933h-4.224v-14.933zM207.297 24h-4.224v-14.933h4.224v14.933zM213.356 18.176h-6.357v-3.499h6.357v3.499zM224.009 24v-12.523l0.939 0.939h-5.525v-3.349h13.313v3.349h-5.505l0.939-0.939v12.523h-4.16zM232.652 24l6.592-14.933h4.16l6.613 14.933h-4.395l-5.163-12.864h1.664l-5.163 12.864h-4.309zM236.257 21.099l1.088-3.115h7.296l1.088 3.115h-9.472z"></path>
<path fill="#fae719" style="fill: var(--color1, #fae719)" d="M1.907 24v-14.933h3.477l6.165 10.155h-1.835l6.037-10.155h3.477l0.043 14.933h-3.904l-0.021-9.024h0.661l-4.501 7.552h-1.877l-4.629-7.552h0.789v9.024h-3.883zM22.663 24v-14.933h4.16v8.768l6.165-8.768h3.968v14.933h-4.16v-8.747l-6.144 8.747h-3.989zM40.376 24v-14.933h6.827c1.365 0 2.539 0.22 3.52 0.661 0.995 0.441 1.763 1.081 2.304 1.92 0.54 0.825 0.811 1.806 0.811 2.944 0 1.124-0.27 2.098-0.811 2.923s-1.309 1.465-2.304 1.92c-0.981 0.441-2.155 0.661-3.52 0.661h-4.48l1.877-1.835v5.739h-4.224zM44.6 18.709l-1.877-1.941h4.224c0.882 0 1.536-0.192 1.963-0.576 0.441-0.384 0.661-0.917 0.661-1.6 0-0.697-0.221-1.237-0.661-1.621-0.427-0.384-1.081-0.576-1.963-0.576h-4.224l1.877-1.941v8.256z"></path>
</symbol>
<symbol id="icon-youtube" viewBox="0 0 32 32">
<path fill="#2a2a2a" style="fill: var(--color1, #2a2a2a)" d="M32 16c0 8.837-7.163 16-16 16s-16-7.163-16-16c0-8.837 7.163-16 16-16s16 7.163 16 16z"></path>
<path fill="#fff" style="fill: var(--color2, #fff)" d="M23.358 11.939c-0.177-0.669-0.697-1.195-1.358-1.374-1.198-0.325-6.001-0.325-6.001-0.325s-4.803 0-6.001 0.325c-0.661 0.179-1.182 0.705-1.358 1.374-0.321 1.212-0.321 3.741-0.321 3.741s0 2.529 0.321 3.741c0.177 0.669 0.697 1.195 1.358 1.374 1.198 0.325 6.001 0.325 6.001 0.325s4.803 0 6.001-0.325c0.661-0.179 1.181-0.705 1.358-1.374 0.321-1.212 0.321-3.741 0.321-3.741s0-2.529-0.321-3.741z"></path>
<path fill="#2a2a2a" style="fill: var(--color1, #2a2a2a)" d="M14.428 17.977l4.014-2.296-4.014-2.296v4.592z"></path>
<symbol id="icon-arrow" viewBox="0 0 55 32">
<path fill="none" stroke="#fff" style="stroke: var(--color1, #fff)" stroke-linejoin="miter" stroke-linecap="butt" stroke-miterlimit="4" stroke-width="4.5714" d="M4.571 4.571l22.857 22.857 22.857-22.857"></path>
</symbol>
<symbol id="icon-search" viewBox="0 0 32 32">
<path stroke-linejoin="miter" stroke-linecap="butt" stroke-miterlimit="4" stroke-width="1.92" d="M27.2 14.080c0 7.246-5.874 13.12-13.12 13.12s-13.12-5.874-13.12-13.12c0-7.246 5.874-13.12 13.12-13.12s13.12 5.874 13.12 13.12z"></path>
<path stroke-linejoin="miter" stroke-linecap="butt" stroke-miterlimit="4" stroke-width="1.92" d="M30.72 30.72l-7.68-7.68"></path>
</symbol>
</defs>
</svg>
