<svg aria-hidden="true" style="position: absolute; width: 0; height: 0; overflow: hidden;" version="1.1" xmlns="http://www.w3.org/2000/svg" xmlns:xlink="http://www.w3.org/1999/xlink">
<defs>
<symbol id="icon-burger" viewBox="0 0 43 32">
<path stroke-linejoin="miter" stroke-linecap="butt" stroke-miterlimit="4" stroke-width="3.5556" d="M0 1.778h42.667"></path>
<path stroke-linejoin="miter" stroke-linecap="butt" stroke-miterlimit="4" stroke-width="3.5556" d="M0 16h42.667"></path>
<path stroke-linejoin="miter" stroke-linecap="butt" stroke-miterlimit="4" stroke-width="3.5556" d="M0 30.222h42.667"></path>
</symbol>
<symbol id="icon-balance" viewBox="0 0 32 32">
<path stroke-linejoin="miter" stroke-linecap="butt" stroke-miterlimit="4" stroke-width="1.3333" d="M8 31.333h16"></path>
<path stroke-linejoin="miter" stroke-linecap="butt" stroke-miterlimit="4" stroke-width="1.3333" d="M31.333 20c0 1.075-0.523 1.881-1.37 2.445-0.866 0.577-2.063 0.888-3.297 0.888s-2.431-0.311-3.297-0.888c-0.846-0.564-1.37-1.371-1.37-2.445 0-2.483 1.256-5.354 2.579-7.669 0.654-1.144 1.308-2.126 1.799-2.821 0.104-0.148 0.201-0.282 0.289-0.403 0.088 0.12 0.184 0.255 0.289 0.403 0.491 0.696 1.146 1.677 1.799 2.821 1.323 2.316 2.579 5.187 2.579 7.669z"></path>
<path stroke-linejoin="miter" stroke-linecap="butt" stroke-miterlimit="4" stroke-width="1.3333" d="M10 20c0 1.075-0.523 1.881-1.37 2.445-0.866 0.577-2.062 0.888-3.297 0.888s-2.431-0.311-3.297-0.888c-0.846-0.564-1.37-1.371-1.37-2.445 0-2.483 1.256-5.354 2.579-7.669 0.654-1.144 1.308-2.126 1.799-2.821 0.104-0.148 0.201-0.282 0.289-0.403 0.088 0.12 0.184 0.255 0.289 0.403 0.491 0.696 1.146 1.677 1.799 2.821 1.323 2.316 2.579 5.187 2.579 7.669z"></path>
<path stroke-linejoin="miter" stroke-linecap="butt" stroke-miterlimit="4" stroke-width="1.3333" d="M16 6.667v24"></path>
<path stroke-linejoin="miter" stroke-linecap="butt" stroke-miterlimit="4" stroke-width="1.3333" d="M19.333 4h7.333"></path>
<path stroke-linejoin="miter" stroke-linecap="butt" stroke-miterlimit="4" stroke-width="1.3333" d="M5.333 4h7.333"></path>
<path stroke-linejoin="miter" stroke-linecap="butt" stroke-miterlimit="4" stroke-width="1.3333" d="M19.333 4c0 1.841-1.492 3.333-3.333 3.333s-3.333-1.492-3.333-3.333c0-1.841 1.492-3.333 3.333-3.333s3.333 1.492 3.333 3.333z"></path>
</symbol>
<symbol id="icon-cabinet" viewBox="0 0 32 32">
<path stroke-linejoin="miter" stroke-linecap="butt" stroke-miterlimit="4" stroke-width="1.2308" d="M16 19.692c-8.157 0-14.769 4.28-14.769 11.077h29.538c0-6.797-6.612-11.077-14.769-11.077z"></path>
<path stroke-linejoin="miter" stroke-linecap="butt" stroke-miterlimit="4" stroke-width="1.2308" d="M23.385 8.615c0 4.078-3.306 7.385-7.385 7.385s-7.385-3.306-7.385-7.385c0-4.078 3.306-7.385 7.385-7.385s7.385 3.306 7.385 7.385z"></path>
</symbol>
<symbol id="icon-cart" viewBox="0 0 42 32">
<path stroke-linejoin="miter" stroke-linecap="butt" stroke-miterlimit="4" stroke-width="1.6842" d="M40.421 31.158h-25.263l-3.465-20.211M0 1.684h10.105l1.588 9.263M11.693 10.947h28.728l-5.053 15.158h-21.053"></path>
</symbol>
<symbol id="icon-catalog" viewBox="0 0 32 32">
<path d="M0 0h6.667v6.667h-6.667v-6.667z"></path>
<path d="M25.333 0h6.667v6.667h-6.667v-6.667z"></path>
<path d="M0 25.333h6.667v6.667h-6.667v-6.667z"></path>
<path d="M25.333 25.333h6.667v6.667h-6.667v-6.667z"></path>
</symbol>
<symbol id="icon-facebook" viewBox="0 0 32 32">
<path fill="#2a2a2a" style="fill: var(--color1, #2a2a2a)" d="M32 16c0 8.837-7.163 16-16 16s-16-7.163-16-16c0-8.837 7.163-16 16-16s16 7.163 16 16z"></path>
<path fill="#fff" style="fill: var(--color2, #fff)" d="M19.725 14.18l-0.431 2.78h-2.266v6.72h-3.039v-6.72h-2.469v-2.78h2.469v-2.119c0-2.41 1.452-3.742 3.674-3.742 1.064 0 2.177 0.188 2.177 0.188v2.367h-1.226c-1.208 0-1.585 0.741-1.585 1.502v1.804h2.697z"></path>
</symbol>
<symbol id="icon-heart" viewBox="0 0 32 32">
<path stroke-linejoin="miter" stroke-linecap="butt" stroke-miterlimit="4" stroke-width="1.3333" d="M28.837 16.379v-0l-12.837 14.611-12.837-14.611c-3.321-3.698-3.328-9.566-0.020-13.272 1.677-1.548 3.589-2.441 5.746-2.441s4.058 0.89 5.726 2.748l1.385 1.542 1.385-1.542c3.284-3.656 8.437-3.664 11.729-0.022 1.395 1.872 2.22 4.036 2.22 6.504 0 2.473-0.827 4.624-2.496 6.482z"></path>
</symbol>
<symbol id="icon-instagram" viewBox="0 0 32 32">
<path fill="#2a2a2a" style="fill: var(--color1, #2a2a2a)" d="M32 16c0 8.837-7.163 16-16 16s-16-7.163-16-16c0-8.837 7.163-16 16-16s16 7.163 16 16z"></path>
<path fill="#fff" style="fill: var(--color2, #fff)" d="M15.999 8.32c-2.086 0-2.348 0.009-3.167 0.046-0.818 0.037-1.376 0.167-1.864 0.357-0.505 0.196-0.934 0.459-1.36 0.886s-0.69 0.855-0.886 1.36c-0.19 0.488-0.32 1.047-0.357 1.864-0.036 0.819-0.046 1.081-0.046 3.167s0.009 2.347 0.046 3.166c0.038 0.818 0.167 1.376 0.357 1.864 0.196 0.505 0.459 0.934 0.886 1.36s0.855 0.69 1.36 0.886c0.489 0.19 1.047 0.319 1.864 0.357 0.819 0.037 1.081 0.046 3.166 0.046s2.347-0.009 3.166-0.046c0.818-0.037 1.376-0.167 1.865-0.357 0.505-0.196 0.933-0.459 1.36-0.886s0.69-0.855 0.886-1.36c0.189-0.488 0.318-1.047 0.357-1.864 0.037-0.819 0.046-1.080 0.046-3.166s-0.010-2.348-0.046-3.167c-0.038-0.818-0.168-1.376-0.357-1.864-0.197-0.505-0.459-0.934-0.886-1.36s-0.854-0.69-1.36-0.886c-0.49-0.19-1.048-0.319-1.866-0.357-0.819-0.037-1.080-0.046-3.166-0.046h0.002zM15.31 9.704c0.204-0 0.433 0 0.689 0 2.051 0 2.294 0.007 3.103 0.044 0.749 0.034 1.155 0.159 1.426 0.264 0.358 0.139 0.614 0.306 0.883 0.574s0.435 0.525 0.575 0.883c0.105 0.27 0.23 0.677 0.264 1.426 0.037 0.81 0.045 1.053 0.045 3.102s-0.008 2.293-0.045 3.102c-0.034 0.749-0.159 1.155-0.264 1.426-0.139 0.358-0.306 0.614-0.575 0.882s-0.524 0.435-0.883 0.574c-0.27 0.106-0.677 0.23-1.426 0.265-0.81 0.037-1.053 0.045-3.103 0.045s-2.294-0.008-3.103-0.045c-0.749-0.035-1.155-0.16-1.426-0.265-0.358-0.139-0.614-0.306-0.883-0.574s-0.435-0.524-0.575-0.883c-0.105-0.27-0.23-0.677-0.264-1.426-0.037-0.81-0.044-1.053-0.044-3.104s0.007-2.293 0.044-3.102c0.034-0.749 0.159-1.155 0.264-1.426 0.139-0.358 0.306-0.614 0.575-0.883s0.525-0.435 0.883-0.575c0.271-0.106 0.677-0.23 1.426-0.265 0.708-0.032 0.983-0.042 2.414-0.043v0.002zM20.099 10.98c-0.182 0-0.36 0.054-0.512 0.155s-0.27 0.245-0.339 0.414c-0.070 0.168-0.088 0.354-0.052 0.533s0.123 0.343 0.252 0.472c0.129 0.129 0.293 0.217 0.472 0.252s0.364 0.017 0.532-0.053c0.168-0.070 0.312-0.188 0.414-0.34s0.155-0.33 0.155-0.512c0-0.509-0.413-0.922-0.922-0.922v0zM15.999 12.056c-2.178 0-3.944 1.766-3.944 3.944s1.766 3.943 3.944 3.943c2.178 0 3.944-1.765 3.944-3.943s-1.766-3.944-3.944-3.944h0zM15.999 13.44c1.414 0 2.56 1.146 2.56 2.56s-1.146 2.56-2.56 2.56c-1.414 0-2.56-1.146-2.56-2.56s1.146-2.56 2.56-2.56v0z"></path>
</symbol>
<symbol id="icon-log" viewBox="0 0 301 32">
<path fill="#18191a" style="fill: var(--color3, #18191a)" d="M72 0h228.8v32h-228.8v-32z"></path>
<path fill="#fff" style="fill: var(--color2, #fff)" d="M79.365 25.6v-17.92h4.992v10.522l7.398-10.522h4.762v17.92h-4.992v-10.496l-7.373 10.496h-4.787zM112.602 7.68h5.069v17.92h-5.069v-17.92zM105.69 25.6h-5.069v-17.92h5.069v17.92zM112.96 18.611h-7.629v-4.198h7.629v4.198zM130.507 25.958c-1.416 0-2.731-0.222-3.942-0.666-1.195-0.461-2.236-1.109-3.123-1.946-0.87-0.836-1.553-1.818-2.048-2.944-0.495-1.144-0.742-2.398-0.742-3.763s0.248-2.611 0.742-3.738c0.495-1.143 1.178-2.133 2.048-2.97 0.888-0.836 1.929-1.476 3.123-1.92 1.212-0.461 2.526-0.691 3.942-0.691 1.656 0 3.132 0.29 4.429 0.87 1.314 0.58 2.406 1.417 3.277 2.509l-3.226 2.918c-0.58-0.683-1.22-1.203-1.92-1.562-0.683-0.358-1.451-0.538-2.304-0.538-0.734 0-1.408 0.119-2.022 0.358s-1.143 0.589-1.587 1.050c-0.427 0.444-0.768 0.981-1.024 1.613-0.239 0.631-0.358 1.331-0.358 2.099s0.12 1.468 0.358 2.099c0.256 0.632 0.597 1.178 1.024 1.638 0.444 0.444 0.973 0.785 1.587 1.024s1.289 0.358 2.022 0.358c0.853 0 1.621-0.179 2.304-0.538 0.7-0.358 1.34-0.879 1.92-1.562l3.226 2.918c-0.87 1.075-1.963 1.912-3.277 2.509-1.297 0.58-2.773 0.87-4.429 0.87zM144.576 25.6v-15.027l1.126 1.126h-6.63v-4.019h15.974v4.019h-6.605l1.126-1.126v15.027h-4.992zM157.639 25.6v-17.92h8.191c1.638 0 3.046 0.265 4.224 0.794 1.195 0.529 2.117 1.297 2.765 2.304 0.65 0.99 0.973 2.167 0.973 3.533 0 1.348-0.323 2.517-0.973 3.507-0.648 0.99-1.57 1.758-2.765 2.304-1.178 0.529-2.586 0.794-4.224 0.794h-5.376l2.253-2.202v6.886h-5.068zM162.707 19.251l-2.253-2.33h5.069c1.059 0 1.843-0.23 2.355-0.691 0.53-0.461 0.794-1.101 0.794-1.92 0-0.836-0.264-1.485-0.794-1.946-0.512-0.461-1.296-0.691-2.355-0.691h-5.069l2.253-2.33v9.907zM176.97 21.581c1.006 0.29 1.826 0.384 2.458 0.282 0.648-0.12 1.219-0.546 1.715-1.28l0.87-1.28 0.435-0.486 5.581-11.136h4.941l-7.424 13.85c-0.734 1.365-1.613 2.424-2.637 3.174-1.008 0.751-2.117 1.178-3.328 1.28-1.213 0.102-2.483-0.12-3.814-0.666l1.203-3.738zM182.371 22.886l-8.192-15.206h5.35l5.606 11.622-2.765 3.584zM194.851 25.6v-17.92h4.173l7.398 12.186h-2.202l7.245-12.186h4.173l0.051 17.92h-4.685l-0.026-10.829h0.794l-5.402 9.062h-2.253l-5.555-9.062h0.947v10.829h-4.659zM224.416 14.618h8.32v3.789h-8.32v-3.789zM224.774 21.683h9.37v3.917h-14.387v-17.92h14.054v3.917h-9.037v10.086zM249.269 7.68h5.069v17.92h-5.069v-17.92zM242.357 25.6h-5.069v-17.92h5.069v17.92zM249.627 18.611h-7.629v-4.198h7.629v4.198zM262.411 25.6v-15.027l1.126 1.126h-6.63v-4.019h15.976v4.019h-6.606l1.126-1.126v15.027h-4.992zM272.782 25.6l7.91-17.92h4.992l7.936 17.92h-5.274l-6.195-15.437h1.997l-6.195 15.437h-5.171zM277.109 22.118l1.306-3.738h8.755l1.306 3.738h-11.366z"></path>
<path fill="#18191a" style="fill: var(--color3, #18191a)" d="M2.289 25.6v-17.92h4.173l7.398 12.186h-2.202l7.245-12.186h4.173l0.051 17.92h-4.685l-0.026-10.829h0.794l-5.402 9.062h-2.253l-5.555-9.062h0.947v10.829h-4.659zM27.195 25.6v-17.92h4.992v10.522l7.398-10.522h4.762v17.92h-4.992v-10.496l-7.373 10.496h-4.787zM48.451 25.6v-17.92h8.192c1.638 0 3.046 0.265 4.224 0.794 1.195 0.529 2.116 1.297 2.765 2.304 0.648 0.99 0.973 2.167 0.973 3.533 0 1.348-0.324 2.517-0.973 3.507s-1.57 1.758-2.765 2.304c-1.178 0.529-2.586 0.794-4.224 0.794h-5.376l2.253-2.202v6.886h-5.069zM53.52 19.251l-2.253-2.33h5.069c1.058 0 1.843-0.23 2.355-0.691 0.529-0.461 0.794-1.101 0.794-1.92 0-0.836-0.265-1.485-0.794-1.946-0.512-0.461-1.297-0.691-2.355-0.691h-5.069l2.253-2.33v9.907z"></path>
</symbol>
<symbol id="icon-youtube" viewBox="0 0 32 32">
<path fill="#2a2a2a" style="fill: var(--color1, #2a2a2a)" d="M32 16c0 8.837-7.163 16-16 16s-16-7.163-16-16c0-8.837 7.163-16 16-16s16 7.163 16 16z"></path>
<path fill="#fff" style="fill: var(--color2, #fff)" d="M23.358 11.939c-0.177-0.669-0.697-1.195-1.358-1.374-1.198-0.325-6.001-0.325-6.001-0.325s-4.803 0-6.001 0.325c-0.661 0.179-1.182 0.705-1.358 1.374-0.321 1.212-0.321 3.741-0.321 3.741s0 2.529 0.321 3.741c0.177 0.669 0.697 1.195 1.358 1.374 1.198 0.325 6.001 0.325 6.001 0.325s4.803 0 6.001-0.325c0.661-0.179 1.181-0.705 1.358-1.374 0.321-1.212 0.321-3.741 0.321-3.741s0-2.529-0.321-3.741z"></path>
<path fill="#2a2a2a" style="fill: var(--color1, #2a2a2a)" d="M14.428 17.977l4.014-2.296-4.014-2.296v4.592z"></path>
</symbol>
</defs>
</svg>
