<svg aria-hidden="true" style="position: absolute; width: 0; height: 0; overflow: hidden;" version="1.1" xmlns="http://www.w3.org/2000/svg" xmlns:xlink="http://www.w3.org/1999/xlink">
<defs>
<symbol id="icon-burger" viewBox="0 0 43 32">
<path stroke-linejoin="miter" stroke-linecap="butt" stroke-miterlimit="4" stroke-width="3.5556" d="M0 1.778h42.667"></path>
<path stroke-linejoin="miter" stroke-linecap="butt" stroke-miterlimit="4" stroke-width="3.5556" d="M0 16h42.667"></path>
<path stroke-linejoin="miter" stroke-linecap="butt" stroke-miterlimit="4" stroke-width="3.5556" d="M0 30.222h42.667"></path>
</symbol>
<symbol id="icon-balance" viewBox="0 0 32 32">
<path stroke-linejoin="miter" stroke-linecap="butt" stroke-miterlimit="4" stroke-width="1.3333" d="M8 31.333h16"></path>
<path stroke-linejoin="miter" stroke-linecap="butt" stroke-miterlimit="4" stroke-width="1.3333" d="M31.333 20c0 1.075-0.523 1.881-1.37 2.445-0.866 0.577-2.063 0.888-3.297 0.888s-2.431-0.311-3.297-0.888c-0.846-0.564-1.37-1.371-1.37-2.445 0-2.483 1.256-5.354 2.579-7.669 0.654-1.144 1.308-2.126 1.799-2.821 0.104-0.148 0.201-0.282 0.289-0.403 0.088 0.12 0.184 0.255 0.289 0.403 0.491 0.696 1.146 1.677 1.799 2.821 1.323 2.316 2.579 5.187 2.579 7.669z"></path>
<path stroke-linejoin="miter" stroke-linecap="butt" stroke-miterlimit="4" stroke-width="1.3333" d="M10 20c0 1.075-0.523 1.881-1.37 2.445-0.866 0.577-2.062 0.888-3.297 0.888s-2.431-0.311-3.297-0.888c-0.846-0.564-1.37-1.371-1.37-2.445 0-2.483 1.256-5.354 2.579-7.669 0.654-1.144 1.308-2.126 1.799-2.821 0.104-0.148 0.201-0.282 0.289-0.403 0.088 0.12 0.184 0.255 0.289 0.403 0.491 0.696 1.146 1.677 1.799 2.821 1.323 2.316 2.579 5.187 2.579 7.669z"></path>
<path stroke-linejoin="miter" stroke-linecap="butt" stroke-miterlimit="4" stroke-width="1.3333" d="M16 6.667v24"></path>
<path stroke-linejoin="miter" stroke-linecap="butt" stroke-miterlimit="4" stroke-width="1.3333" d="M19.333 4h7.333"></path>
<path stroke-linejoin="miter" stroke-linecap="butt" stroke-miterlimit="4" stroke-width="1.3333" d="M5.333 4h7.333"></path>
<path stroke-linejoin="miter" stroke-linecap="butt" stroke-miterlimit="4" stroke-width="1.3333" d="M19.333 4c0 1.841-1.492 3.333-3.333 3.333s-3.333-1.492-3.333-3.333c0-1.841 1.492-3.333 3.333-3.333s3.333 1.492 3.333 3.333z"></path>
</symbol>
<symbol id="icon-cabinet" viewBox="0 0 32 32">
<path stroke-linejoin="miter" stroke-linecap="butt" stroke-miterlimit="4" stroke-width="1.2308" d="M16 19.692c-8.157 0-14.769 4.28-14.769 11.077h29.538c0-6.797-6.612-11.077-14.769-11.077z"></path>
<path stroke-linejoin="miter" stroke-linecap="butt" stroke-miterlimit="4" stroke-width="1.2308" d="M23.385 8.615c0 4.078-3.306 7.385-7.385 7.385s-7.385-3.306-7.385-7.385c0-4.078 3.306-7.385 7.385-7.385s7.385 3.306 7.385 7.385z"></path>
</symbol>
<symbol id="icon-cart" viewBox="0 0 32 32">
<path stroke-linejoin="miter" stroke-linecap="butt" stroke-miterlimit="4" stroke-width="1.28" d="M30.080 28.8c0 1.414-1.146 2.56-2.56 2.56s-2.56-1.146-2.56-2.56c0-1.414 1.146-2.56 2.56-2.56s2.56 1.146 2.56 2.56z"></path>
<path stroke-linejoin="miter" stroke-linecap="butt" stroke-miterlimit="4" stroke-width="1.28" d="M17.28 28.8c0 1.414-1.146 2.56-2.56 2.56s-2.56-1.146-2.56-2.56c0-1.414 1.146-2.56 2.56-2.56s2.56 1.146 2.56 2.56z"></path>
<path stroke-linejoin="miter" stroke-linecap="butt" stroke-miterlimit="4" stroke-width="1.28" d="M30.72 23.68h-19.2l-2.633-15.36M0 1.28h7.68l1.207 7.040M8.887 8.32h21.833l-3.84 11.52h-16"></path>
</symbol>
<symbol id="icon-catalog" viewBox="0 0 32 32">
<path d="M0 0h6.667v6.667h-6.667v-6.667z"></path>
<path d="M25.333 0h6.667v6.667h-6.667v-6.667z"></path>
<path d="M0 25.333h6.667v6.667h-6.667v-6.667z"></path>
<path d="M25.333 25.333h6.667v6.667h-6.667v-6.667z"></path>
</symbol>
<symbol id="icon-facebook" viewBox="0 0 18 32">
<path  d="M17.050 12.361l-0.862 5.56h-4.532v13.44h-6.079v-13.44h-4.939v-5.56h4.939v-4.237c0-4.82 2.904-7.483 7.347-7.483 2.128 0 4.354 0.376 4.354 0.376v4.733h-2.453c-2.416 0-3.17 1.483-3.17 3.004v3.608h5.395z"></path>
</symbol>
<symbol id="icon-heart" viewBox="0 0 32 32">
<path stroke-linejoin="miter" stroke-linecap="butt" stroke-miterlimit="4" stroke-width="1.3333" d="M28.837 16.379v-0l-12.837 14.611-12.837-14.611c-3.321-3.698-3.328-9.566-0.020-13.272 1.677-1.548 3.589-2.441 5.746-2.441s4.058 0.89 5.726 2.748l1.385 1.542 1.385-1.542c3.284-3.656 8.437-3.664 11.729-0.022 1.395 1.872 2.22 4.036 2.22 6.504 0 2.473-0.827 4.624-2.496 6.482z"></path>
</symbol>
<symbol id="icon-instagram" viewBox="0 0 32 32">
<path  d="M15.999 0.641c-4.172 0-4.695 0.018-6.334 0.093-1.635 0.075-2.751 0.334-3.728 0.714-1.010 0.392-1.867 0.917-2.721 1.771s-1.379 1.711-1.773 2.721c-0.381 0.977-0.64 2.093-0.714 3.728-0.073 1.638-0.092 2.162-0.092 6.334s0.019 4.693 0.093 6.332c0.075 1.635 0.334 2.751 0.714 3.728 0.393 1.010 0.917 1.867 1.772 2.721s1.71 1.38 2.72 1.773c0.977 0.38 2.094 0.639 3.729 0.714 1.638 0.075 2.162 0.093 6.333 0.093s4.694-0.018 6.332-0.093c1.635-0.075 2.753-0.334 3.73-0.714 1.010-0.392 1.866-0.918 2.719-1.773s1.379-1.711 1.773-2.721c0.378-0.977 0.637-2.093 0.714-3.728 0.074-1.638 0.093-2.161 0.093-6.332s-0.019-4.695-0.093-6.333c-0.077-1.635-0.336-2.751-0.714-3.728-0.394-1.010-0.918-1.867-1.773-2.721s-1.709-1.379-2.72-1.771c-0.979-0.38-2.096-0.639-3.731-0.714-1.638-0.075-2.16-0.093-6.333-0.093h0.004zM14.621 3.409c0.409-0.001 0.865 0 1.378 0 4.101 0 4.587 0.015 6.207 0.088 1.498 0.068 2.31 0.319 2.852 0.529 0.717 0.278 1.228 0.611 1.765 1.149s0.87 1.050 1.149 1.766c0.21 0.541 0.461 1.354 0.529 2.851 0.074 1.619 0.090 2.106 0.090 6.205s-0.016 4.586-0.090 6.205c-0.068 1.498-0.319 2.31-0.529 2.851-0.278 0.717-0.612 1.227-1.149 1.764s-1.048 0.87-1.765 1.149c-0.541 0.211-1.354 0.461-2.852 0.529-1.619 0.074-2.106 0.090-6.207 0.090s-4.588-0.016-6.207-0.090c-1.498-0.069-2.31-0.319-2.852-0.53-0.717-0.278-1.229-0.611-1.766-1.149s-0.87-1.048-1.149-1.765c-0.21-0.541-0.461-1.354-0.529-2.851-0.074-1.619-0.088-2.106-0.088-6.207s0.015-4.586 0.088-6.205c0.068-1.498 0.319-2.31 0.529-2.852 0.278-0.717 0.612-1.229 1.149-1.766s1.050-0.87 1.766-1.149c0.541-0.211 1.355-0.461 2.852-0.53 1.417-0.064 1.966-0.083 4.829-0.086v0.004zM24.198 5.959c-0.365 0-0.721 0.108-1.024 0.311s-0.539 0.49-0.679 0.827c-0.139 0.337-0.176 0.707-0.105 1.065s0.247 0.686 0.505 0.944c0.258 0.258 0.586 0.433 0.944 0.504s0.728 0.034 1.065-0.105c0.337-0.14 0.625-0.376 0.827-0.679s0.311-0.66 0.31-1.024c0-1.018-0.826-1.843-1.843-1.843v0.001zM15.999 8.113c-4.356 0-7.888 3.532-7.888 7.888s3.532 7.886 7.888 7.886c4.356 0 7.887-3.53 7.887-7.886s-3.531-7.888-7.887-7.888h0zM15.999 10.881c2.828 0 5.12 2.292 5.12 5.12s-2.292 5.12-5.12 5.12c-2.828 0-5.12-2.292-5.12-5.12s2.292-5.12 5.12-5.12z"></path>
</symbol>
<symbol id="icon-logo" viewBox="0 0 257 32">
<path fill="#fae719" style="fill: var(--color1, #fae719)" d="M62.667 0h194.667v32h-194.667v-32z"></path>
<path fill="#18191a" style="fill: var(--color2, #18191a)" d="M71.471 24v-14.933h4.16v8.768l6.165-8.768h3.968v14.933h-4.16v-8.747l-6.144 8.747h-3.989zM99.168 9.067h4.224v14.933h-4.224v-14.933zM93.408 24h-4.224v-14.933h4.224v14.933zM99.467 18.176h-6.357v-3.499h6.357v3.499zM114.089 24.299c-1.18 0-2.275-0.185-3.285-0.555-0.995-0.384-1.863-0.924-2.603-1.621-0.725-0.697-1.294-1.515-1.707-2.453-0.412-0.953-0.619-1.998-0.619-3.136s0.206-2.176 0.619-3.115c0.413-0.953 0.981-1.778 1.707-2.475 0.74-0.697 1.607-1.23 2.603-1.6 1.010-0.384 2.105-0.576 3.285-0.576 1.38 0 2.61 0.242 3.691 0.725 1.095 0.484 2.005 1.18 2.731 2.091l-2.688 2.432c-0.483-0.569-1.017-1.003-1.6-1.301-0.569-0.299-1.209-0.448-1.92-0.448-0.611 0-1.173 0.1-1.685 0.299s-0.953 0.491-1.323 0.875c-0.355 0.37-0.64 0.818-0.853 1.344-0.199 0.526-0.299 1.109-0.299 1.749s0.1 1.223 0.299 1.749c0.213 0.526 0.498 0.981 0.853 1.365 0.37 0.37 0.811 0.654 1.323 0.853s1.074 0.299 1.685 0.299c0.711 0 1.351-0.149 1.92-0.448 0.583-0.299 1.117-0.732 1.6-1.301l2.688 2.432c-0.725 0.896-1.635 1.593-2.731 2.091-1.081 0.484-2.311 0.725-3.691 0.725zM125.813 24v-12.523l0.939 0.939h-5.525v-3.349h13.312v3.349h-5.504l0.939-0.939v12.523h-4.16zM136.699 24v-14.933h6.827c1.365 0 2.539 0.22 3.52 0.661 0.996 0.441 1.764 1.081 2.304 1.92 0.541 0.825 0.811 1.806 0.811 2.944 0 1.124-0.269 2.098-0.811 2.923-0.54 0.825-1.308 1.465-2.304 1.92-0.981 0.441-2.155 0.661-3.52 0.661h-4.48l1.877-1.835v5.739h-4.224zM140.923 18.709l-1.877-1.941h4.224c0.883 0 1.536-0.192 1.963-0.576 0.441-0.384 0.661-0.917 0.661-1.6 0-0.697-0.22-1.237-0.661-1.621-0.427-0.384-1.080-0.576-1.963-0.576h-4.224l1.877-1.941v8.256zM152.808 20.651c0.839 0.242 1.521 0.32 2.048 0.235 0.54-0.1 1.016-0.455 1.429-1.067l0.725-1.067 0.363-0.405 4.651-9.28h4.117l-6.187 11.541c-0.612 1.138-1.344 2.020-2.197 2.645-0.84 0.626-1.764 0.981-2.773 1.067-1.011 0.085-2.069-0.1-3.179-0.555l1.003-3.115zM157.309 21.739l-6.827-12.672h4.459l4.672 9.685-2.304 2.987zM167.709 24v-14.933h3.477l6.165 10.155h-1.835l6.037-10.155h3.477l0.043 14.933h-3.904l-0.021-9.024h0.661l-4.501 7.552h-1.877l-4.629-7.552h0.789v9.024h-3.883zM192.347 14.848h6.933v3.157h-6.933v-3.157zM192.645 20.736h7.808v3.264h-11.989v-14.933h11.712v3.264h-7.531v8.405zM213.057 9.067h4.224v14.933h-4.224v-14.933zM207.297 24h-4.224v-14.933h4.224v14.933zM213.356 18.176h-6.357v-3.499h6.357v3.499zM224.009 24v-12.523l0.939 0.939h-5.525v-3.349h13.313v3.349h-5.505l0.939-0.939v12.523h-4.16zM232.652 24l6.592-14.933h4.16l6.613 14.933h-4.395l-5.163-12.864h1.664l-5.163 12.864h-4.309zM236.257 21.099l1.088-3.115h7.296l1.088 3.115h-9.472z"></path>
<path fill="#fae719" style="fill: var(--color1, #fae719)" d="M1.907 24v-14.933h3.477l6.165 10.155h-1.835l6.037-10.155h3.477l0.043 14.933h-3.904l-0.021-9.024h0.661l-4.501 7.552h-1.877l-4.629-7.552h0.789v9.024h-3.883zM22.663 24v-14.933h4.16v8.768l6.165-8.768h3.968v14.933h-4.16v-8.747l-6.144 8.747h-3.989zM40.376 24v-14.933h6.827c1.365 0 2.539 0.22 3.52 0.661 0.995 0.441 1.763 1.081 2.304 1.92 0.54 0.825 0.811 1.806 0.811 2.944 0 1.124-0.27 2.098-0.811 2.923s-1.309 1.465-2.304 1.92c-0.981 0.441-2.155 0.661-3.52 0.661h-4.48l1.877-1.835v5.739h-4.224zM44.6 18.709l-1.877-1.941h4.224c0.882 0 1.536-0.192 1.963-0.576 0.441-0.384 0.661-0.917 0.661-1.6 0-0.697-0.221-1.237-0.661-1.621-0.427-0.384-1.081-0.576-1.963-0.576h-4.224l1.877-1.941v8.256z"></path>
</symbol>
<symbol id="icon-youtube" viewBox="0 0 32 32">
<path d="M31.327 8.273c-0.386-1.353-1.431-2.398-2.756-2.777l-0.028-0.007c-2.493-0.668-12.528-0.668-12.528-0.668s-10.009-0.013-12.528 0.668c-1.353 0.386-2.398 1.431-2.777 2.756l-0.007 0.028c-0.443 2.281-0.696 4.903-0.696 7.585 0 0.054 0 0.109 0 0.163l-0-0.008c-0 0.037-0 0.082-0 0.126 0 2.682 0.253 5.304 0.737 7.845l-0.041-0.26c0.386 1.353 1.431 2.398 2.756 2.777l0.028 0.007c2.491 0.669 12.528 0.669 12.528 0.669s10.008 0 12.528-0.669c1.353-0.386 2.398-1.431 2.777-2.756l0.007-0.028c0.425-2.233 0.668-4.803 0.668-7.429 0-0.099-0-0.198-0.001-0.297l0 0.015c0.001-0.092 0.001-0.201 0.001-0.31 0-2.626-0.243-5.196-0.708-7.687l0.040 0.258zM12.812 20.801v-9.591l8.352 4.803z"></path>
</symbol>
<symbol id="icon-arrow" viewBox="0 0 55 32">
<path  stroke-linejoin="miter" stroke-linecap="butt" stroke-miterlimit="4" stroke-width="4.5714" d="M4.571 4.571l22.857 22.857 22.857-22.857"></path>
</symbol>
<symbol id="icon-search" viewBox="0 0 32 32">
<path stroke-linejoin="miter" stroke-linecap="butt" stroke-miterlimit="4" stroke-width="1.92" d="M27.2 14.080c0 7.246-5.874 13.12-13.12 13.12s-13.12-5.874-13.12-13.12c0-7.246 5.874-13.12 13.12-13.12s13.12 5.874 13.12 13.12z"></path>
<path stroke-linejoin="miter" stroke-linecap="butt" stroke-miterlimit="4" stroke-width="1.92" d="M30.72 30.72l-7.68-7.68"></path>
</symbol>
<symbol id="icon-star" viewBox="0 0 35 32">
<path fill="#fae719" style="fill: var(--color1, #fae719)" d="M17.455 0l4.925 10.676 11.676 1.384-8.632 7.983 2.291 11.532-10.26-5.743-10.26 5.743 2.291-11.532-8.632-7.983 11.676-1.384 4.925-10.676z"></path>
</symbol>
<symbol id="icon-mastercard" viewBox="0 0 42 32">
<path  d="M8.987 30.222c0-0.595 0.393-1.084 1.036-1.084 0.614 0 1.028 0.468 1.028 1.084s-0.414 1.084-1.028 1.084c-0.642 0-1.036-0.489-1.036-1.084zM11.751 30.222v-1.694h-0.742v0.413c-0.235-0.305-0.593-0.496-1.078-0.496-0.957 0-1.707 0.744-1.707 1.778s0.75 1.778 1.707 1.778c0.485 0 0.843-0.191 1.078-0.496v0.411h0.741v-1.694h0.001zM36.831 30.222c0-0.595 0.393-1.084 1.036-1.084 0.615 0 1.028 0.468 1.028 1.084s-0.414 1.084-1.028 1.084c-0.642 0-1.036-0.489-1.036-1.084zM39.595 30.222v-3.053h-0.743v1.772c-0.235-0.305-0.593-0.496-1.078-0.496-0.957 0-1.707 0.744-1.707 1.778s0.75 1.778 1.707 1.778c0.486 0 0.843-0.191 1.078-0.496v0.411h0.743v-1.694zM20.963 29.103c0.478 0 0.786 0.298 0.864 0.821h-1.771c0.079-0.489 0.378-0.821 0.907-0.821zM20.978 28.443c-1 0-1.7 0.722-1.7 1.778 0 1.077 0.728 1.778 1.75 1.778 0.514 0 0.985-0.127 1.399-0.474l-0.364-0.546c-0.286 0.227-0.65 0.354-0.993 0.354-0.478 0-0.914-0.22-1.021-0.829h2.535c0.007-0.092 0.015-0.184 0.015-0.283-0.008-1.055-0.666-1.778-1.621-1.778l0 0zM29.939 30.22c0-0.595 0.393-1.084 1.036-1.084 0.614 0 1.028 0.468 1.028 1.084s-0.414 1.084-1.028 1.084c-0.642 0-1.036-0.489-1.036-1.084zM32.703 30.22v-1.692h-0.742v0.413c-0.236-0.305-0.593-0.496-1.078-0.496-0.957 0-1.707 0.744-1.707 1.778s0.75 1.778 1.707 1.778c0.486 0 0.842-0.191 1.078-0.496v0.411h0.742v-1.694l-0-0.001zM25.748 30.22c0 1.027 0.721 1.778 1.821 1.778 0.514 0 0.857-0.114 1.227-0.404l-0.356-0.595c-0.279 0.199-0.571 0.305-0.894 0.305-0.593-0.007-1.028-0.432-1.028-1.084s0.436-1.076 1.028-1.084c0.322 0 0.615 0.106 0.894 0.305l0.356-0.595c-0.371-0.29-0.714-0.404-1.227-0.404-1.1 0-1.821 0.751-1.821 1.778zM35.316 28.442c-0.428 0-0.707 0.199-0.9 0.496v-0.41h-0.736v3.385h0.743v-1.898c0-0.56 0.243-0.872 0.728-0.872 0.159-0.002 0.317 0.027 0.464 0.085l0.229-0.694c-0.164-0.064-0.378-0.092-0.529-0.092l0-0.001zM15.42 28.797c-0.357-0.234-0.849-0.354-1.392-0.354-0.865 0-1.421 0.411-1.421 1.084 0 0.552 0.414 0.892 1.178 0.999l0.351 0.050c0.407 0.057 0.599 0.163 0.599 0.354 0 0.262-0.27 0.411-0.778 0.411-0.514 0-0.885-0.163-1.135-0.354l-0.349 0.574c0.407 0.297 0.921 0.439 1.478 0.439 0.986 0 1.557-0.46 1.557-1.105 0-0.595-0.45-0.906-1.193-1.013l-0.35-0.050c-0.321-0.041-0.579-0.105-0.579-0.332 0-0.248 0.243-0.396 0.65-0.396 0.436 0 0.857 0.163 1.064 0.29l0.321-0.595-0.001-0.001zM24.998 28.444c-0.428 0-0.707 0.199-0.899 0.496v-0.412h-0.736v3.385h0.742v-1.898c0-0.56 0.243-0.872 0.728-0.872 0.159-0.002 0.317 0.027 0.464 0.085l0.229-0.694c-0.164-0.064-0.379-0.092-0.529-0.092l0 0.001zM18.664 28.528h-1.214v-1.027h-0.75v1.027h-0.692v0.673h0.692v1.544c0 0.786 0.307 1.253 1.185 1.253 0.322 0 0.693-0.099 0.929-0.262l-0.214-0.63c-0.222 0.127-0.464 0.191-0.657 0.191-0.371 0-0.492-0.227-0.492-0.567v-1.53h1.214v-0.674zM7.566 31.914v-2.125c0-0.8-0.514-1.339-1.343-1.346-0.436-0.007-0.885 0.127-1.2 0.602-0.235-0.375-0.606-0.602-1.128-0.602-0.365 0-0.721 0.106-1 0.503v-0.419h-0.743v3.385h0.749v-1.877c0-0.588 0.329-0.9 0.836-0.9 0.493 0 0.742 0.319 0.742 0.893v1.884h0.75v-1.877c0-0.588 0.343-0.9 0.835-0.9 0.507 0 0.749 0.319 0.749 0.892v1.884l0.752 0.002z"></path>
<path fill="#18191a" style="fill: var(--color2, #18191a)" d="M26.423 22.776h-11.248v-20.050h11.249l-0 20.050z"></path>
<path  d="M15.889 12.751c0-4.067 1.92-7.69 4.91-10.025-2.263-1.77-5.062-2.731-7.944-2.726-7.1 0-12.855 5.709-12.855 12.751s5.755 12.751 12.855 12.751c2.882 0.004 5.681-0.956 7.945-2.726-2.99-2.334-4.91-5.958-4.91-10.025z"></path>
<path  d="M41.6 12.751c0 7.042-5.755 12.751-12.855 12.751-2.882 0.004-5.682-0.956-7.946-2.726 2.991-2.335 4.911-5.958 4.911-10.025s-1.92-7.69-4.911-10.025c2.264-1.77 5.063-2.73 7.945-2.726 7.1 0 12.855 5.709 12.855 12.751z"></path>
</symbol>
<symbol id="icon-visa" viewBox="0 0 54 32">
<path  d="M4.162 31.999c11.735-5.073 28.2-9.671 50.008-5.067l0.229-5.579c-23.008-2.534-39.517 4.858-50.236 10.096v0.55z"></path>
<path  d="M16.435 17.287l5.086-16.916h4.538l-5.086 16.916h-4.538zM14.406 0.376l-4.082 7.171c-1.039 1.878-1.647 2.827-1.939 4.013h-0.062c0.072-1.505-0.136-3.352-0.155-4.396l-0.451-6.789h-7.639l-0.079 0.455c1.963 0 3.126 0.994 3.447 3.029l1.489 13.428h4.701l9.506-16.912h-4.736zM49.697 17.287l-0.125-2.516-5.666-0.005-1.159 2.52h-4.927l8.933-16.884h6.047l1.513 16.884-4.616 0zM49.176 7.309c-0.050-1.25-0.093-2.947-0.008-3.974h-0.067c-0.276 0.84-1.462 3.362-1.984 4.602l-1.688 3.708h3.979l-0.231-4.336zM30.823 17.768c-3.204 0-5.33-1.025-6.848-1.939l2.162-3.33c1.363 0.769 2.433 1.656 4.894 1.656 0.792 0 1.554-0.208 1.987-0.964 0.631-1.1-0.146-1.692-1.918-2.705l-0.875-0.574c-2.628-1.811-3.764-3.532-2.527-6.535 0.792-1.921 2.879-3.377 6.324-3.377 2.375 0 4.602 1.036 5.9 2.049l-2.485 2.94c-1.266-1.033-2.316-1.556-3.517-1.556-0.958 0-1.685 0.373-1.936 0.875-0.473 0.945 0.153 1.589 1.534 2.454l1.041 0.668c3.19 2.030 3.951 4.158 3.151 6.148-1.375 3.425-4.068 4.19-6.885 4.19z"></path>
</symbol>
<symbol id="icon-privatbank" viewBox="0 0 190 32">
<path  d="M36.093 27.619h-4.693v-16.572h16.895v16.572h-4.692v-13.353h-7.51v13.353z"></path>
<path  d="M50.569 15.593v16.408h4.325v-5.611c1.449 1.563 3.81 1.681 4.379 1.681 4.125 0 6.656-2.629 6.656-6.441 0-3.977-2.503-6.486-6.57-6.486-1.025 0-3.016 0.166-4.666 1.894h-0.085l0.028-1.446h-4.067zM54.693 21.583c0-3.361 2.077-4.024 3.386-4.024 1.28 0 3.356 0.663 3.356 4.024 0 2.084-0.881 4.074-3.356 4.074-2.531 0-3.386-1.989-3.386-4.074z"></path>
<path  d="M76.652 26.177c-1.592 1.49-3.126 1.894-4.834 1.894-4.665 0-4.836-3.504-4.836-4.948v-7.53h4.324v6.961c0 2.392 0.827 3.103 2.418 3.103 2.729 0 2.928-2.439 2.928-3.315v-6.749h4.326v12.028h-4.326v-1.443z"></path>
<path  d="M87.18 22.553h2.646c2.046 0 2.474 0.616 2.474 1.421 0 0.52-0.286 1.231-2.42 1.231h-2.699v-2.652zM82.856 15.592v12.028h8.59c3.129 0 5.29-0.615 5.29-3.077 0-1.894-1.054-2.723-3.442-3.148v-0.071c1.565-0.213 2.93-1.184 2.93-2.817 0-2.913-3.414-2.913-4.75-2.913h-8.618zM87.18 18.008h2.33c1.224 0 2.275 0.189 2.275 1.183 0 1.090-1.649 1.114-2.36 1.114h-2.246v-2.296z"></path>
<path  d="M102.194 19.476c0-1.776 1.877-1.917 2.646-1.917 0.484 0 2.274 0.024 2.333 1.586 0 0.118 0 0.213 0 0.331-0.086 1.184-1.223 0.947-4.408 1.35-2.618 0.355-5.378 1.017-5.378 3.765 0 0.995 0.427 3.481 5.035 3.481 1.765 0 3.699-0.451 4.835-1.634h0.087l0.369 1.183h4.55v-0.212c-0.825-0.166-0.882-0.971-0.854-2.273l0.085-5.493c0.030-1.396-0.113-4.497-6.626-4.497-1.565 0-6.599 0.142-6.798 4.332h4.124zM107.201 22.649c0 2.415-2.105 3.008-3.156 3.008-0.798 0-2.22-0.261-2.22-1.397 0-1.35 1.621-1.611 2.532-1.729 1.678-0.237 1.535-0.165 2.844-0.64v0.758z"></path>
<path  d="M111.982 18.008v-2.416h13.879v2.416h-4.778v9.611h-4.322v-9.611h-4.778z"></path>
<path  d="M131.379 14.266h10.779v-3.219h-15.474v16.572h9.501c4.609 0 7.566-1.609 7.566-4.995 0-5.302-5.916-5.422-7.566-5.422h-4.806v-2.936zM131.379 20.422h3.895c1.141 0 3.414 0.119 3.414 2.107 0 1.563-1.65 1.87-3.498 1.87h-3.811v-3.977z"></path>
<path  d="M149.385 19.476c0-1.776 1.878-1.917 2.644-1.917 0.484 0 2.278 0.024 2.334 1.586 0 0.118 0 0.213 0 0.331-0.086 1.184-1.223 0.947-4.411 1.35-2.615 0.355-5.374 1.017-5.374 3.765 0 0.995 0.426 3.481 5.034 3.481 1.763 0 3.698-0.451 4.835-1.634h0.085l0.37 1.183h4.55v-0.212c-0.822-0.166-0.882-0.971-0.852-2.273l0.085-5.493c0.029-1.396-0.114-4.497-6.629-4.497-1.562 0-6.598 0.142-6.797 4.332h4.125zM154.39 22.649c0 2.415-2.105 3.008-3.157 3.008-0.796 0-2.218-0.261-2.218-1.397 0-1.35 1.62-1.611 2.53-1.729 1.679-0.237 1.537-0.165 2.846-0.64v0.758z"></path>
<path  d="M164.858 27.62h-4.324v-12.028h4.324v4.523h5.206v-4.523h4.324v12.028h-4.324v-5.090h-5.206v5.090z"></path>
<path  d="M185.31 15.592h4.806l-5.944 5.635 6.23 6.393h-5.065l-4.664-5.255h-0.084v5.255h-4.322v-12.028h4.322v4.831h0.084l4.638-4.831z"></path>
<path  d="M0 27.657h10.83v-10.816h-10.83v10.816z"></path>
<path  d="M21.986 5.718c0 3.678 0 12.549 0 16.227-1.029 0-1.21 0-2.209 0-0.954-8.025-6.002-13.066-14.038-14.019 0-0.998 0-1.179 0-2.208 3.683 0 12.565 0 16.248 0zM0.013 0v13.463h2.864c7.536 0 11.357 3.816 11.357 11.34v2.86h13.478v-27.664h-27.699z"></path>
</symbol>
</defs>
</svg>
